<?xml version="1.0" standalone="no"?>
<!DOCTYPE svg PUBLIC "-//W3C//DTD SVG 20010904//EN"
 "http://www.w3.org/TR/2001/REC-SVG-20010904/DTD/svg10.dtd">
<svg version="1.0" xmlns="http://www.w3.org/2000/svg"
 width="96.000000pt" height="96.000000pt" viewBox="0 0 96.000000 96.000000"
 preserveAspectRatio="xMidYMid meet">

<g transform="translate(0.000000,96.000000) scale(0.100000,-0.100000)"
fill="#000000" stroke="none">
<path d="M226 765 c-21 -22 -30 -76 -22 -146 l7 -60 -33 -13 -33 -14 28 -11
c32 -12 137 -15 152 -3 6 4 11 23 13 41 4 47 7 48 35 16 20 -24 26 -26 45 -16
21 11 24 9 37 -23 8 -20 15 -40 15 -46 0 -5 5 -10 10 -10 6 0 10 5 10 10 0 6
7 26 15 46 13 32 16 34 37 23 19 -10 24 -8 44 17 27 33 32 30 36 -17 2 -18 10
-37 18 -41 24 -11 104 -9 140 3 26 9 34 9 42 -2 8 -12 9 -12 6 0 -2 7 -19 19
-38 25 l-35 11 3 76 c4 95 -14 149 -52 149 -13 0 -46 -17 -73 -38 -36 -29 -53
-37 -68 -31 -26 10 -144 10 -170 0 -14 -6 -32 2 -70 31 -54 41 -75 46 -99 23z
m60 -81 c14 -20 22 -24 42 -19 22 5 24 4 13 -9 -20 -24 -47 -19 -70 12 -16 22
-20 23 -21 9 0 -10 5 -28 11 -39 9 -16 8 -19 -3 -16 -17 6 -33 51 -25 72 9 24
34 19 53 -10z m442 -4 c3 -27 -22 -70 -34 -57 -4 4 -2 13 4 19 14 14 16 48 4
48 -5 0 -14 -11 -20 -25 -13 -28 -43 -33 -63 -9 -11 13 -9 14 13 9 20 -5 28
-1 42 20 21 32 50 29 54 -5z"/>
<path d="M140 493 c0 -6 8 -17 18 -24 16 -13 16 -13 2 6 -8 11 -16 22 -17 24
-2 2 -3 0 -3 -6z"/>
<path d="M800 475 c-10 -18 -10 -28 -2 -38 9 -10 5 -23 -17 -53 -33 -45 -88
-79 -143 -89 -34 -7 -37 -9 -32 -35 5 -21 0 -34 -16 -50 l-23 -23 29 7 c110
27 212 118 252 227 10 24 9 25 -19 21 -31 -5 -40 13 -17 36 6 6 9 14 7 17 -3
3 -12 -6 -19 -20z"/>
<path d="M221 472 c-9 -6 -10 -15 -5 -23 5 -8 18 -38 29 -68 17 -48 24 -56 54
-64 44 -11 94 -2 115 21 8 10 22 36 29 58 11 30 19 39 37 39 18 0 26 -9 37
-40 22 -64 44 -79 110 -79 64 1 76 12 94 79 6 22 16 46 22 53 20 25 -14 33
-118 27 -55 -4 -120 -6 -145 -6 -25 0 -90 2 -145 6 -57 3 -106 2 -114 -3z"/>
<path d="M112 420 c41 -108 145 -201 253 -226 28 -6 29 -5 11 9 -13 10 -20 27
-20 51 0 30 -4 36 -21 36 -12 0 -45 12 -74 26 -57 29 -118 99 -102 118 6 8 -1
11 -24 11 -31 0 -32 -1 -23 -25z"/>
<path d="M460 394 c-15 -39 -13 -44 20 -44 17 0 30 4 30 9 0 20 -20 61 -30 61
-6 0 -15 -12 -20 -26z"/>
<path d="M445 320 c-11 -18 10 -32 41 -28 40 4 38 32 -3 36 -17 2 -34 -2 -38
-8z"/>
<path d="M390 251 c0 -5 7 -12 16 -15 14 -5 15 -4 4 9 -14 17 -20 19 -20 6z"/>
<path d="M550 245 c-11 -13 -10 -14 4 -9 9 3 16 10 16 15 0 13 -6 11 -20 -6z"/>
<path d="M438 223 c6 -2 18 -2 25 0 6 3 1 5 -13 5 -14 0 -19 -2 -12 -5z"/>
<path d="M498 223 c6 -2 18 -2 25 0 6 3 1 5 -13 5 -14 0 -19 -2 -12 -5z"/>
<path d="M413 183 c9 -2 25 -2 35 0 9 3 1 5 -18 5 -19 0 -27 -2 -17 -5z"/>
<path d="M513 183 c9 -2 25 -2 35 0 9 3 1 5 -18 5 -19 0 -27 -2 -17 -5z"/>
</g>
</svg>
