<?xml version="1.0" encoding="UTF-8"?>
<svg version="1.1" xmlns="http://www.w3.org/2000/svg" width="1024" height="1024">
<path d="M0 0 C337.92 0 675.84 0 1024 0 C1024 337.92 1024 675.84 1024 1024 C686.08 1024 348.16 1024 0 1024 C0 686.08 0 348.16 0 0 Z " fill="#121212" transform="translate(0,0)"/>
<path d="M0 0 C9.04900241 4.68095007 16.22263989 11.51351645 23 19 C23.63808594 19.66515625 24.27617188 20.3303125 24.93359375 21.015625 C26 23 26 23 25.42578125 25.2109375 C24.95527344 26.13132813 24.48476563 27.05171875 24 28 C23.40242153 29.32205185 22.81338097 30.64797886 22.23046875 31.9765625 C21.7367981 33.0907959 21.7367981 33.0907959 21.2331543 34.22753906 C13.44681692 52.07993996 10.09135898 69.69334484 8 89 C9.24007813 88.95359375 10.48015625 88.9071875 11.7578125 88.859375 C39.48011245 88.16385253 67.80315743 92.03869301 93 104 C93.24153809 103.43321533 93.48307617 102.86643066 93.73193359 102.2824707 C95.25183104 99.54671383 97.0699521 97.6878366 99.2890625 95.48046875 C100.14886719 94.62259766 101.00867188 93.76472656 101.89453125 92.88085938 C102.79558594 91.99205078 103.69664062 91.10324219 104.625 90.1875 C105.50285156 89.31029297 106.38070313 88.43308594 107.28515625 87.52929688 C112.36366462 82.48474584 117.53516835 77.62282478 123 73 C123.59844727 72.48945068 124.19689453 71.97890137 124.81347656 71.45288086 C145.85464679 53.64552043 173.8620902 30.2172765 202.89746094 31.7734375 C211.58319715 32.70938306 219.66717415 37.13158138 226 43 C226.58007812 43.52722656 227.16015625 44.05445313 227.7578125 44.59765625 C252.5849401 69.9257797 253.44791559 118.58219171 253.3125 151.6875 C253.31100952 152.59765869 253.30951904 153.50781738 253.3079834 154.44555664 C253.25045783 174.07465549 251.61347642 192.96411278 246.8671875 212.0625 C244.81892394 219.79559534 244.81892394 219.79559534 246.046875 227.3828125 C262.59846875 244.31402996 287.20228835 249.77971818 309.91333008 252.92456055 C318.53727947 254.18211394 326.88330351 256.87248303 332.3125 264.0625 C336.43621635 271.24082106 336.11464361 280.04467141 334.10693359 287.93408203 C332.9355374 292.02196683 331.57067195 296.0423421 330.1875 300.0625 C329.27638997 302.77968139 328.37682149 305.50057514 327.48046875 308.22265625 C327.1551265 309.20185532 327.1551265 309.20185532 326.82321167 310.20083618 C324.80257688 316.38159574 323.32159089 322.63171583 322 329 C323.17433594 328.6390625 324.34867188 328.278125 325.55859375 327.90625 C333.82321471 325.48025631 341.71924939 323.50767439 350.375 323.5 C351.06907959 323.49419922 351.76315918 323.48839844 352.47827148 323.48242188 C358.11668537 323.62128196 361.24618731 325.38838834 365.3125 329.125 C369.14782154 335.65925152 366.65024733 344.57069801 365.49609375 351.71875 C365.33757431 352.72667099 365.17905487 353.73459198 365.01573181 354.77305603 C364.50008307 358.017153 363.97078007 361.25875712 363.4375 364.5 C363.25737366 365.603367 363.07724731 366.70673401 362.8916626 367.84353638 C360.39049715 383.05030662 357.6451611 397.93670609 352.79394531 412.59765625 C352.02998186 414.90927997 351.31766038 417.23096941 350.6171875 419.5625 C337.88458521 460.97097746 315.26510471 499.04370141 287.56298828 532.12841797 C286.10098746 533.87907375 284.65661578 535.64283941 283.21484375 537.41015625 C272.01877078 550.96746754 259.40547809 563.62879641 246 575 C245.04673828 575.81343872 245.04673828 575.81343872 244.07421875 576.64331055 C184.17705354 627.41881239 110.98905328 659.0575339 33 668 C32.16082031 668.10296387 31.32164062 668.20592773 30.45703125 668.31201172 C-18.05346998 674.04952055 -69.87208143 670.77607611 -117 658 C-118.30203369 657.64881104 -118.30203369 657.64881104 -119.63037109 657.29052734 C-195.19490762 636.64200314 -270.3766909 593.81337685 -319 531 C-320.57965191 529.14269596 -322.16323257 527.28872867 -323.75 525.4375 C-353.88749683 489.19797522 -374.99622149 446.4597334 -387 401 C-387.22349121 400.19272461 -387.44698242 399.38544922 -387.67724609 398.55371094 C-391.20630111 385.77453663 -393.27998626 372.77069051 -395.3125 359.6875 C-395.5154216 358.39209793 -395.5154216 358.39209793 -395.72244263 357.07052612 C-396.11058167 354.57287765 -396.48887876 352.07395981 -396.86328125 349.57421875 C-396.9786322 348.8290802 -397.09398315 348.08394165 -397.21282959 347.31622314 C-399.01364029 334.98973834 -399.01364029 334.98973834 -396.3125 329.6875 C-393.35161873 326.24647582 -390.81157837 324.28726457 -386.265625 323.56640625 C-373.92256651 323.55041783 -362.43261157 326.53193568 -351 331 C-354.74760701 317.92727257 -358.59349905 304.89895372 -362.77758789 291.95849609 C-363.05465576 291.10078613 -363.33172363 290.24307617 -363.6171875 289.359375 C-363.86065918 288.61139648 -364.10413086 287.86341797 -364.35498047 287.09277344 C-366.54639831 279.98269254 -367.14372022 272.91727151 -364.16796875 265.91796875 C-360.22031194 259.43536175 -354.1275366 256.07539566 -347 254 C-343.51887456 253.2825 -340.0151499 252.77087498 -336.5 252.25 C-315.24723676 248.80491343 -293.35414091 244.02424573 -278 228 C-277.08927734 227.12214844 -277.08927734 227.12214844 -276.16015625 226.2265625 C-274.36375027 222.77891466 -275.25648449 219.65139652 -276 216 C-276.13889648 215.31212402 -276.27779297 214.62424805 -276.42089844 213.91552734 C-276.72610851 212.46394288 -277.03897405 211.01395263 -277.35839844 209.56542969 C-287.64352611 162.22273428 -291.61529068 95.24182384 -265.625 52.0625 C-258.69796419 41.8165767 -249.38977116 33.52094713 -237 31 C-207.01815958 28.00181596 -178.20031541 53.16810057 -156.453125 70.86328125 C-144.56175052 80.76706254 -133.83431407 91.97266677 -123 103 C-121.56827099 102.53351336 -120.13745779 102.06421538 -118.70703125 101.59375 C-117.91014893 101.33271484 -117.1132666 101.07167969 -116.29223633 100.80273438 C-113.7967539 99.96666914 -113.7967539 99.96666914 -110.6875 98.5 C-92.24415642 90.99762295 -70.65866231 90.63064293 -51 90 C-50.87044922 88.77603516 -50.87044922 88.77603516 -50.73828125 87.52734375 C-47.7503088 62.33517236 -42.46548304 32.5853042 -25 13 C-24.48050781 12.40058594 -23.96101563 11.80117187 -23.42578125 11.18359375 C-17.39767399 4.67773439 -9.06885032 -2.17126041 0 0 Z " fill="#FD7801" transform="translate(527,157)"/>
<path d="M0 0 C1.01030273 0.10715332 2.02060547 0.21430664 3.06152344 0.32470703 C18.7965418 2.0520892 33.85342999 4.78062269 48.99609375 9.41015625 C49.7155719 9.63004715 50.43505005 9.84993805 51.17633057 10.07649231 C54.80322743 11.1893415 58.42427178 12.31784681 62.03857422 13.47094727 C86.36559978 21.14647453 107.05729832 19.39852045 131.0625 11.625 C160.75580115 2.04645347 192.40449246 -2.07594715 223.5859375 -2.203125 C224.74936676 -2.21013931 225.91279602 -2.21715363 227.11148071 -2.22438049 C230.86602688 -2.24183095 234.6204147 -2.24823742 238.375 -2.25 C239.66422363 -2.25067474 240.95344727 -2.25134949 242.28173828 -2.25204468 C284.66017143 -2.21693059 325.54371308 2.25921661 367 11 C367 20.9 367 30.8 367 41 C382.90433526 36.93931866 397.95463549 32.53777126 413 26 C410.91198559 31.98706173 407.0061679 36.18503971 403 41 C402.25363281 41.96873047 402.25363281 41.96873047 401.4921875 42.95703125 C393.3536966 53.25803545 381.87301949 57.78646205 369.56640625 61.27734375 C368.8091626 61.49245605 368.05191895 61.70756836 367.27172852 61.92919922 C365.7928445 62.34147489 364.31030936 62.74093898 362.82397461 63.12548828 C358.32412835 64.3533451 355.11657601 65.48844127 352 69 C348.65750534 76.05248483 346.99388205 83.6824131 345.25 91.25 C340.01015016 112.91313324 333.46568437 135.28756181 318 152 C317.35933594 152.69480469 316.71867188 153.38960937 316.05859375 154.10546875 C309.44823123 160.59039744 301.38312334 164.32092013 293 168 C292.03449219 168.42410156 291.06898438 168.84820313 290.07421875 169.28515625 C273.27545595 175.67889665 253.92782608 175.51471168 236.22216797 175.44604492 C232.87015145 175.43748762 229.51982086 175.46652705 226.16796875 175.49804688 C199.26636578 175.58582626 173.70368235 170.66425112 153.41015625 151.625 C136.34467953 133.03828954 130.47198017 106.03621555 122.9453125 82.60546875 C122.63464844 81.64922607 122.32398438 80.6929834 122.00390625 79.70776367 C121.43808957 77.96457679 120.88015467 76.21880167 120.33203125 74.4699707 C117.93893808 67.10277202 114.99961797 61.84292751 108 58 C99.23675083 54.4231636 88.9113971 54.98167049 80.08203125 58.10546875 C73.09303786 61.10824452 70.98000035 66.37768024 68 73 C66.69951508 76.4290555 65.59309206 79.90270341 64.51171875 83.40625 C63.8809256 85.38804191 63.250064 87.36981204 62.61914062 89.3515625 C61.65550681 92.41277495 60.69530751 95.47503042 59.73754883 98.53808594 C51.55188786 124.62578955 42.80243943 150.44955761 17 164 C0.39329886 171.84047892 -16.82058794 175.12415902 -35.11328125 175.203125 C-36.1629155 175.20882507 -37.21254974 175.21452515 -38.29399109 175.22039795 C-40.51019296 175.22980199 -42.72640852 175.23636353 -44.94262695 175.24023438 C-48.26474813 175.24986162 -51.58622874 175.28089742 -54.90820312 175.3125 C-82.1282223 175.44801587 -110.16004393 172.31134881 -130.69921875 152.51171875 C-148.57113881 133.00128649 -155.62322496 104.49252684 -160.78369141 79.21044922 C-162.03934042 73.46597081 -162.96331629 69.54776307 -168 66 C-171.36009713 64.47834157 -171.36009713 64.47834157 -175.0625 63.4375 C-176.0510498 63.12800415 -176.0510498 63.12800415 -177.05957031 62.81225586 C-179.03573688 62.19416706 -181.01669722 61.59473754 -183 61 C-203.26547432 54.8354126 -214.33711278 44.22136964 -226 27 C-225.34 26.67 -224.68 26.34 -224 26 C-221.13970786 27.11924475 -218.36141992 28.30470147 -215.5625 29.5625 C-203.66496736 34.75311261 -191.46402504 38.43884999 -179 42 C-179 31.77 -179 21.54 -179 11 C-121.1913243 -1.84637238 -59.01071876 -6.34534243 0 0 Z " fill="#131212" transform="translate(418,420)"/>
<path d="M0 0 C-0.29043855 1.62521995 -0.58243892 3.25016079 -0.875 4.875 C-1.03742188 5.77992188 -1.19984375 6.68484375 -1.3671875 7.6171875 C-1.71872763 9.49640818 -2.08440401 11.3736844 -2.50561523 13.23852539 C-3.87192897 19.44475925 -4.35197775 25.33891457 -4.3125 31.6875 C-4.30686035 32.64793213 -4.3012207 33.60836426 -4.29541016 34.59790039 C-3.99764978 52.21440671 0.76165208 69.18426237 12 83 C12.64453125 83.81855469 13.2890625 84.63710938 13.953125 85.48046875 C31.3960409 106.31506275 60.58778694 117.36279087 87 120 C89.63367907 120.10973663 92.2416792 120.18652315 94.875 120.203125 C95.60259521 120.20882507 96.33019043 120.21452515 97.07983398 120.22039795 C98.61261576 120.22978015 100.14541708 120.23635467 101.67822266 120.24023438 C103.96685264 120.24986058 106.2545516 120.2809152 108.54296875 120.3125 C118.69793781 120.3855731 128.10754046 119.27083582 138 117 C138.84804199 116.80647949 139.69608398 116.61295898 140.56982422 116.41357422 C166.77867655 109.97790547 188.67107385 96.11294217 203 73 C214.75505327 51.69769534 214.44610126 30.23502277 209.48071289 7.24145508 C208.96397065 4.83200332 208.4787673 2.41725589 208 0 C211.5210863 0.14008671 215.04179712 0.28810982 218.5625 0.4375 C219.55314453 0.47681641 220.54378906 0.51613281 221.56445312 0.55664062 C222.53447266 0.59853516 223.50449219 0.64042969 224.50390625 0.68359375 C225.38892822 0.72025146 226.2739502 0.75690918 227.18579102 0.79467773 C230.48646784 1.03549227 233.72912413 1.50237351 237 2 C238.05486286 45.16498829 238.05486286 45.16498829 232 62 C231.74299316 62.74781738 231.48598633 63.49563477 231.22119141 64.26611328 C225.20132717 81.4388015 215.10681333 96.19755798 202.0625 108.875 C198.42928084 112.42437564 195.22767983 116.12740465 192.1875 120.1875 C163.68901138 158.15549431 163.68901138 158.15549431 146 167 C147.5962093 163.73062648 149.33783928 160.55981164 151.1171875 157.38671875 C151.72433594 156.30326172 152.33148437 155.21980469 152.95703125 154.10351562 C153.58996094 152.97623047 154.22289062 151.84894531 154.875 150.6875 C155.50019531 149.57181641 156.12539063 148.45613281 156.76953125 147.30664062 C159.82463936 141.85847214 162.88918599 136.4165681 166 131 C164.88625 131.45890625 163.7725 131.9178125 162.625 132.390625 C143.49283063 140.137665 124.88819499 144.40368368 104.125 144.25 C103.46669189 144.24689819 102.80838379 144.24379639 102.13012695 144.24060059 C80.92833489 144.12348494 62.79413153 139.18915189 43 132 C45.05812433 135.83569785 47.12229097 139.66811269 49.1875 143.5 C49.76564453 144.57765625 50.34378906 145.6553125 50.93945312 146.765625 C53.49185019 151.49549076 56.04716331 156.1555562 58.98828125 160.65625 C59.65214844 161.7596875 60.31601562 162.863125 61 164 C60.67 164.66 60.34 165.32 60 166 C44.45242195 154.44629521 30.44948322 139.85990014 18.80761719 124.41845703 C17.48299235 122.66924713 16.15060552 120.92641944 14.8125 119.1875 C14.35875 118.59718994 13.905 118.00687988 13.4375 117.39868164 C9.91716347 112.92471804 6.04357545 108.99665711 1.9375 105.0625 C-18.0831868 85.66644124 -29.33191049 56.82114491 -30.21484375 29.09375 C-30.34679661 20.03298686 -29.90643329 11.01577397 -29 2 C-24.75191887 1.01840456 -20.52778993 0.6865665 -16.1875 0.4375 C-15.51396484 0.39431641 -14.84042969 0.35113281 -14.14648438 0.30664062 C-9.42360119 0.02191178 -4.73124259 -0.03708701 0 0 Z " fill="#121111" transform="translate(408,615)"/>
<path d="M0 0 C0.84510635 -0.00960754 1.69021271 -0.01921509 2.56092834 -0.02911377 C3.46822189 -0.03336365 4.37551544 -0.03761353 5.31030273 -0.04199219 C6.7276194 -0.0505423 6.7276194 -0.0505423 8.17356873 -0.05926514 C10.17494593 -0.06870632 12.17633862 -0.07524562 14.17773438 -0.07910156 C17.20853672 -0.08875457 20.23864533 -0.11976457 23.26928711 -0.15136719 C42.13436064 -0.25460151 42.13436064 -0.25460151 50.68139648 3.16113281 C51.43340332 3.45117188 52.18541016 3.74121094 52.96020508 4.04003906 C59.7671971 6.8323053 64.74699733 12.37516797 67.61889648 19.09863281 C70.28086027 27.65019146 68.57149406 35.2436401 64.68139648 43.16113281 C62.59317572 46.40717895 60.25064547 49.28576054 57.68139648 52.16113281 C57.15803711 52.77730469 56.63467773 53.39347656 56.09545898 54.02832031 C47.64222619 63.30625874 36.92275045 67.50476404 24.68139648 69.16113281 C23.36139648 69.16113281 22.04139648 69.16113281 20.68139648 69.16113281 C20.79209473 69.70938721 20.90279297 70.2576416 21.0168457 70.82250977 C21.34571078 72.45331783 21.67385595 74.08427115 22.00146484 75.71533203 C22.37255323 77.55983559 22.74577628 79.40391092 23.12109375 81.24755859 C24.08161632 86.00085983 24.93104128 90.7345028 25.61889648 95.53613281 C26.49975701 100.41533414 27.95510019 102.85827928 31.68139648 106.16113281 C37.98506795 108.77277462 44.28322253 108.53327345 50.98193359 108.53173828 C53.08248376 108.53605793 55.18083411 108.57227003 57.28100586 108.61035156 C69.96246601 108.71762867 81.3732012 106.24016651 92.80639648 100.53613281 C96.71877532 98.60491602 100.59973728 96.71678406 104.68139648 95.16113281 C98.8916187 108.9601032 80.87877912 118.24417195 67.93920898 123.88769531 C62.27213154 126.10288386 56.60656283 127.78247467 50.68139648 129.16113281 C48.79614258 129.61166016 48.79614258 129.61166016 46.87280273 130.07128906 C35.69523003 132.41228732 24.42737547 132.47998193 13.05639648 132.53613281 C12.27642303 132.54398804 11.49644958 132.55184326 10.69284058 132.55993652 C-15.10983458 132.76186137 -39.56923026 126.97440018 -58.82641602 108.80566406 C-62.49544605 104.91235163 -65.49294085 100.69376576 -68.31860352 96.16113281 C-64.23692033 96.16113281 -61.40226297 98.04810069 -57.88110352 99.91113281 C-44.8435535 106.61502068 -33.21966349 109.33952146 -18.56860352 109.34863281 C-17.54766602 109.36087891 -16.52672852 109.373125 -15.47485352 109.38574219 C-7.62264692 109.40068928 0.44887132 109.10104018 7.68139648 105.78613281 C11.00707047 101.42118571 11.68909266 96.46383147 12.68139648 91.16113281 C12.85058594 90.2668457 13.01977539 89.37255859 13.1940918 88.45117188 C14.40001578 82.02872909 15.55670266 75.59826507 16.68139648 69.16113281 C15.96419434 69.11359863 15.24699219 69.06606445 14.50805664 69.01708984 C2.3969127 68.08921176 -7.28956966 64.4111912 -16.31860352 56.16113281 C-16.95540039 55.58105469 -17.59219727 55.00097656 -18.24829102 54.40332031 C-26.28646476 46.71013257 -31.3266781 39.11371258 -31.81860352 27.78613281 C-31.61414436 20.43412249 -29.7482675 14.68205171 -24.55688477 9.35253906 C-17.80415363 3.85995248 -8.75435326 0.08082097 0 0 Z " fill="#131111" transform="translate(493.318603515625,565.8388671875)"/>
<path d="M0 0 C4.01386169 1.3379539 5.24459716 3.90630718 7.4375 7.3125 C8.08404541 8.29827026 8.08404541 8.29827026 8.74365234 9.30395508 C12.34265923 14.84873521 15.74109521 20.50980381 19.125 26.1875 C20.63194438 28.70446071 22.13963509 31.22096907 23.6484375 33.73681641 C24.48755195 35.14190869 25.32182404 36.54991957 26.1484375 37.96240234 C30.69918785 45.70594887 34.81663034 50.24036289 43 54 C43.63099609 54.29245605 44.26199219 54.58491211 44.91210938 54.88623047 C51.50128696 57.91843212 58.07748268 60.8071529 65 63 C61.92469978 66.30557632 58.63487835 68.70054432 54.875 71.1875 C46.55127176 76.82460364 39.39828379 83.24396543 32.83984375 90.8671875 C32.23269531 91.57101562 31.62554687 92.27484375 31 93 C30.21753906 93.91007812 29.43507813 94.82015625 28.62890625 95.7578125 C22.37341566 102.59410206 22.37341566 102.59410206 18.8984375 103.62109375 C12.3465298 103.21649387 6.56004549 98.54959632 2.0859375 94.09375 C-12.12643641 77.31438344 -14.39835353 54.01912594 -13 33 C-11.96962675 21.00920304 -6.61825648 9.92738471 0 0 Z " fill="#121010" transform="translate(298,240)"/>
<path d="M0 0 C8.96351487 8.15040985 13.51819687 22.2976387 14.17700195 34.19702148 C14.56244081 55.7339932 14.60132949 78.8140996 -1.33984375 95.60546875 C-6.59711565 100.02157714 -12.06357584 102.79658981 -19 103 C-21.41231721 101.27811947 -23.032687 99.84176329 -24.984375 97.69140625 C-25.52547913 97.13186752 -26.06658325 96.5723288 -26.62408447 95.99583435 C-28.35275204 94.20267842 -30.05229245 92.38495383 -31.75 90.5625 C-33.98325345 88.19842702 -36.22840962 85.84631222 -38.484375 83.50390625 C-39.30520821 82.65048141 -39.30520821 82.65048141 -40.1426239 81.77981567 C-46.86997487 74.91105681 -54.51894359 69.52323009 -63 65 C-60.93916035 62.93916035 -59.66356536 62.3227275 -57 61.265625 C-56.19981445 60.94223145 -55.39962891 60.61883789 -54.57519531 60.28564453 C-53.72538086 59.94388184 -52.87556641 59.60211914 -52 59.25 C-34.72721549 52.07182564 -27.98960923 44.62516134 -19.20336914 28.3371582 C-13.95244461 18.7969409 -7.74245856 7.74245856 0 0 Z " fill="#111011" transform="translate(724,240)"/>
<path d="M0 0 C0.33 0 0.66 0 1 0 C1.16222206 8.12462135 0.76284701 16.00181958 -0.25 24.0625 C-0.38567383 25.15030762 -0.52134766 26.23811523 -0.66113281 27.35888672 C-6.87716284 75.12970893 -26.22985734 125.90032417 -60 161 C-60.48774902 161.51884766 -60.97549805 162.03769531 -61.47802734 162.57226562 C-78.10982389 180.21652087 -97.85492375 193.47006092 -118.9375 205.25 C-119.80866455 205.74064941 -120.6798291 206.23129883 -121.57739258 206.73681641 C-122.38587646 207.17944824 -123.19436035 207.62208008 -124.02734375 208.078125 C-124.74656006 208.47418945 -125.46577637 208.87025391 -126.20678711 209.27832031 C-127.09442749 209.63555176 -127.09442749 209.63555176 -128 210 C-128.66 209.67 -129.32 209.34 -130 209 C-129.40050537 208.40574219 -128.80101074 207.81148437 -128.18334961 207.19921875 C-125.92425473 204.95733893 -123.66755127 202.71308469 -121.41235352 200.46728516 C-120.44257727 199.50248541 -119.4718993 198.53859105 -118.50024414 197.57568359 C-113.32463358 192.44544971 -108.24952059 187.29337215 -103.5090332 181.75634766 C-101.28391078 179.16655139 -98.95222255 176.68594463 -96.625 174.1875 C-92.30767249 169.51354626 -88.21162501 164.70592264 -84.22265625 159.74609375 C-81.98316013 156.97919432 -79.68242858 154.27287328 -77.375 151.5625 C-66.39127808 138.38887713 -56.14447761 124.51367932 -47 110 C-46.55124512 109.29037109 -46.10249023 108.58074219 -45.64013672 107.84960938 C-31.73726191 85.69264685 -19.98857264 62.57307628 -11 38 C-10.69626465 37.17177734 -10.3925293 36.34355469 -10.07958984 35.49023438 C-5.88053718 23.87100412 -2.83475365 12.01634511 0 0 Z " fill="#121011" transform="translate(842,523)"/>
<path d="M0 0 C2.73306107 2.73306107 2.69221686 4.94811865 3.3515625 8.7421875 C4.77778188 16.41308443 6.88294154 23.72632643 9.375 31.125 C9.58664795 31.75741608 9.7982959 32.38983215 10.01635742 33.04141235 C19.67153444 61.70889462 33.36315126 88.77655699 50 114 C50.5249707 114.79970215 51.04994141 115.5994043 51.59082031 116.42333984 C58.70647172 127.20942008 66.30300772 137.39854255 74.59423828 147.30615234 C76.52213195 149.62913363 78.38550427 152.00099851 80.25 154.375 C83.62504536 158.60979375 87.20102395 162.6308673 90.84765625 166.6328125 C92.75817947 168.7340413 94.63668448 170.85697199 96.5 173 C104.39105721 182.03409829 112.54888559 190.68214324 121.0625 199.125 C122.12979417 200.18726206 123.19685278 201.24976083 124.26367188 202.3125 C126.83974925 204.87772359 129.41896071 207.4397678 132 210 C127.55108418 210 124.43907903 207.87171389 120.5625 205.8125 C119.7257373 205.3690625 118.88897461 204.925625 118.02685547 204.46875 C98.60716566 193.97669806 80.95865913 181.21691863 65 166 C64.20851563 165.26136719 63.41703125 164.52273438 62.6015625 163.76171875 C20.1609588 123.03363064 1.67580635 57.03520221 0 0 Z " fill="#131111" transform="translate(180,522)"/>
<path d="M0 0 C0 4.42702476 -2.70730424 7.01010038 -5.25 10.4375 C-27.55946575 41.38685571 -44.96097106 77.49704858 -48 116 C-51.04172719 116.0271045 -54.08320997 116.04688964 -57.125 116.0625 C-57.9809375 116.07087891 -58.836875 116.07925781 -59.71875 116.08789062 C-64.26678411 116.10538306 -68.52383164 115.93192358 -73 115 C-72.44064154 107.49199138 -70.68153806 100.73560543 -68.4375 93.5625 C-68.08034912 92.41668457 -67.72319824 91.27086914 -67.35522461 90.09033203 C-59.36470474 65.07241568 -47.09840865 43.11719325 -29 24 C-28.18015625 23.11570312 -27.3603125 22.23140625 -26.515625 21.3203125 C-18.53759765 12.98823068 -9.58033287 6.38688858 0 0 Z " fill="#131010" transform="translate(469,279)"/>
<path d="M0 0 C32.85453647 15.87847308 54.30293174 49.59035388 66.10546875 82.8515625 C69.76678413 93.43993731 73.12918782 103.93102792 75 115 C69.28094617 115.82536345 63.7732851 116.12753701 58 116.0625 C57.22527344 116.05798828 56.45054687 116.05347656 55.65234375 116.04882812 C53.76819476 116.03719758 51.88408635 116.01926906 50 116 C49.82984375 114.89785156 49.6596875 113.79570312 49.484375 112.66015625 C43.26973576 73.29639483 27.97545526 40.1993498 5.18408203 7.70507812 C3.41779467 5.16162432 1.70758049 2.58316121 0 0 Z " fill="#131011" transform="translate(554,279)"/>
<path d="M0 0 C0.66 0 1.32 0 2 0 C8.96304311 37.37577351 -5.31012381 74.43008687 -26 105 C-32.58474911 114.28998546 -40.11754961 122.79748788 -48 131 C-48.56734863 131.59458008 -49.13469727 132.18916016 -49.71923828 132.80175781 C-59.94216854 143.46175338 -70.62058874 152.90218962 -83 161 C-81.66538772 157.99996717 -80.23165379 156.05792462 -77.828125 153.8359375 C-73.65051156 149.77280882 -70.21160189 145.30195627 -66.75 140.625 C-66.09813721 139.7479541 -65.44627441 138.8709082 -64.7746582 137.96728516 C-51.1618166 119.48161756 -39.87806333 99.70445925 -30 79 C-29.65646484 78.28247559 -29.31292969 77.56495117 -28.95898438 76.82568359 C-17.33066134 52.32010887 -7.17015139 26.1835379 0 0 Z " fill="#131010" transform="translate(722,611)"/>
<path d="M0 0 C0.66 0 1.32 0 2 0 C2.18997559 0.64622314 2.37995117 1.29244629 2.57568359 1.95825195 C19.44486306 58.95805806 43.11340716 113.23980418 83 158 C75.52296399 158 67.68550106 148.00609565 62.37890625 143.15625 C60.22489491 141.20384564 58.02972274 139.31722641 55.8125 137.4375 C52.51285211 134.56020704 49.64988147 131.47570417 46.828125 128.1328125 C45.58252152 126.67960844 44.29900942 125.25825415 42.984375 123.8671875 C22.72996348 102.37419686 8.63049267 75.39514151 1 47 C0.70089722 45.9008728 0.70089722 45.9008728 0.39575195 44.77954102 C-1.32380327 37.52029527 -1.27086887 30.2608126 -1.20581055 22.84838867 C-1.18738729 20.67419851 -1.18530266 18.50043256 -1.18554688 16.32617188 C-1.14502864 4.80455159 -1.14502864 4.80455159 0 0 Z " fill="#121011" transform="translate(300,611)"/>
<path d="M0 0 C2.31 0 4.62 0 7 0 C7 0.66 7 1.32 7 2 C10.63 2 14.26 2 18 2 C18 1.34 18 0.68 18 0 C28.71044514 -0.0232884 39.42088415 -0.0409985 50.13134956 -0.05181217 C55.10596748 -0.05700518 60.08056792 -0.06403687 65.05517578 -0.07543945 C69.86626225 -0.08639676 74.67733203 -0.09230373 79.48843002 -0.09487724 C81.31339658 -0.09670855 83.13836234 -0.100284 84.96332169 -0.10573006 C95.36369497 -0.13550004 105.63375899 0.05759624 116 1 C116 1.33 116 1.66 116 2 C115.33269867 1.99555878 114.66539734 1.99111755 113.97787476 1.98654175 C59.18684386 1.26849237 59.18684386 1.26849237 4.60522461 5.39013672 C-0.28927606 6.01331254 -5.07724015 6.08915736 -10 6 C-10 5.67 -10 5.34 -10 5 C-4.555 4.505 -4.555 4.505 1 4 C0.67 2.68 0.34 1.36 0 0 Z " fill="#E78825" transform="translate(293,417)"/>
<path d="M0 0 C0.66 0 1.32 0 2 0 C2.1952124 0.66193359 2.3904248 1.32386719 2.59155273 2.00585938 C6.65352733 15.69573838 10.9581045 29.17713701 16.29272461 42.43164062 C16.66147705 43.36943359 17.03022949 44.30722656 17.41015625 45.2734375 C17.74152588 46.09247559 18.07289551 46.91151367 18.41430664 47.75537109 C19.0664062 50.25449712 18.84696163 51.59124803 18 54 C12.9811234 41.10581971 8.24526756 28.16997776 4 15 C3.97421875 15.75925781 3.9484375 16.51851562 3.921875 17.30078125 C3.86515625 18.29464844 3.8084375 19.28851562 3.75 20.3125 C3.70359375 21.29863281 3.6571875 22.28476562 3.609375 23.30078125 C2.85688625 26.6339205 1.74313443 27.13858735 -1 29 C-1.02911003 25.10418244 -1.04683587 21.208393 -1.0625 17.3125 C-1.07087891 16.20970703 -1.07925781 15.10691406 -1.08789062 13.97070312 C-1.09111328 12.90400391 -1.09433594 11.83730469 -1.09765625 10.73828125 C-1.10289307 9.75899658 -1.10812988 8.77971191 -1.11352539 7.77075195 C-1.00308543 5.07530428 -0.60534166 2.62454361 0 0 Z " fill="#190C08" transform="translate(300,611)"/>
<path d="M0 0 C0.99 0.495 0.99 0.495 2 1 C2 2.65 2 4.3 2 6 C2.66 6 3.32 6 4 6 C4.84112657 8.52337971 5.21824043 10.41151837 5.46875 13.015625 C5.82239598 16.43328188 6.23739225 19.83227881 6.71875 23.234375 C6.84636719 24.13929688 6.97398437 25.04421875 7.10546875 25.9765625 C7.36631114 27.81020704 7.62929567 29.64354827 7.89453125 31.4765625 C9.47988696 42.78223051 10.15383566 54.0134679 10.09765625 65.42578125 C10.0962413 66.53938522 10.09482635 67.6529892 10.09336853 68.80033875 C10.08783865 72.30442161 10.07530001 75.80843695 10.0625 79.3125 C10.05747591 81.71028553 10.05291461 84.10807207 10.04882812 86.50585938 C10.03789233 92.33726203 10.021226 98.16862619 10 104 C9.01 104.495 9.01 104.495 8 105 C8.00666183 104.43577332 8.01332367 103.87154663 8.02018738 103.29022217 C8.39723716 69.79678707 8.10090127 37.87828122 0.41137695 5.09936523 C0 3 0 3 0 0 Z " fill="#180803" transform="translate(771,233)"/>
<path d="M0 0 C0.33 0 0.66 0 1 0 C1.75143066 3.35720618 2.12946002 6.46907199 2.14526367 9.90698242 C2.15483345 11.32952583 2.15483345 11.32952583 2.16459656 12.7808075 C2.16570938 13.79544571 2.1668222 14.81008392 2.16796875 15.85546875 C2.17129715 16.91228348 2.17462555 17.96909821 2.17805481 19.05793762 C2.1831118 21.29293382 2.18546351 23.52793754 2.18530273 25.76293945 C2.18748097 29.15784393 2.20562722 32.55241895 2.22460938 35.94726562 C2.22754531 38.1249989 2.22952877 40.3027337 2.23046875 42.48046875 C2.23765427 43.48498581 2.24483978 44.48950287 2.25224304 45.52445984 C2.22733936 53.32852482 1.78051214 61.02520398 -2 68 C-2.02685938 65.85423363 -2.04633088 63.70837355 -2.0625 61.5625 C-2.07410156 60.36753906 -2.08570313 59.17257812 -2.09765625 57.94140625 C-2 55 -2 55 -1 54 C-0.87700834 52.31290653 -0.82214742 50.62079097 -0.79467773 48.92944336 C-0.77473251 47.84839828 -0.75478729 46.76735321 -0.73423767 45.65354919 C-0.71752518 44.4775264 -0.70081268 43.3015036 -0.68359375 42.08984375 C-0.66281265 40.89267227 -0.64203156 39.69550079 -0.62062073 38.46205139 C-0.55499721 34.62059513 -0.49618097 30.77906799 -0.4375 26.9375 C-0.39432695 24.34048733 -0.35071307 21.74348194 -0.30664062 19.14648438 C-0.19930284 12.76439883 -0.09756069 6.38224207 0 0 Z " fill="#091221" transform="translate(781,283)"/>
<path d="M0 0 C0.66 0 1.32 0 2 0 C1.67 4.95 1.34 9.9 1 15 C1.33 12.36 1.66 9.72 2 7 C4.14336161 10.4766338 4.21277626 13.21229195 4.125 17.25 C4.10695313 18.32765625 4.08890625 19.4053125 4.0703125 20.515625 C4.04710937 21.33546875 4.02390625 22.1553125 4 23 C3.34 23 2.68 23 2 23 C2.66 25.64 3.32 28.28 4 31 C2.66666667 31 1.33333333 31 0 31 C0 28.03 0 25.06 0 22 C-0.66 22 -1.32 22 -2 22 C-2 24.97 -2 27.94 -2 31 C-2.66 31 -3.32 31 -4 31 C-4.125 24.375 -4.125 24.375 -3 21 C-2.69513559 17.87513984 -2.49158784 14.74971889 -2.28125 11.6171875 C-2 9 -2 9 -1 8 C-0.76924918 6.65252916 -0.58846937 5.29622435 -0.4375 3.9375 C-0.2209375 1.9884375 -0.2209375 1.9884375 0 0 Z " fill="#09121D" transform="translate(511,635)"/>
<path d="M0 0 C-1.18965087 7.36571071 -2.48077909 14.69481007 -4 22 C-4.33 22 -4.66 22 -5 22 C-5.33 16.72 -5.66 11.44 -6 6 C-10.95 6 -15.9 6 -21 6 C-21 5.34 -21 4.68 -21 4 C-15.72 4 -10.44 4 -5 4 C-5 5.98 -5 7.96 -5 10 C-4.34 10 -3.68 10 -3 10 C-3 7.69 -3 5.38 -3 3 C-9.6 2.67 -16.2 2.34 -23 2 C-23.33 2.99 -23.66 3.98 -24 5 C-24.33 3.68 -24.66 2.36 -25 1 C-16.64736824 0.04541351 -8.40215965 -0.11039334 0 0 Z " fill="#0B141F" transform="translate(406,617)"/>
<path d="M0 0 C2.40090775 2.40090775 2.52851694 3.6379072 3.125 6.9375 C3.29257813 7.81277344 3.46015625 8.68804688 3.6328125 9.58984375 C3.94602251 12.49869839 3.99593805 15.17048576 3.9453125 18.0859375 C3.89722165 24.40560978 4.7452314 30.45895286 5.75 36.6875 C6.01526489 38.38737061 6.01526489 38.38737061 6.28588867 40.12158203 C7.54255381 47.90083214 9.18318838 55.45389571 11.36328125 63.0234375 C11.9747551 65.88198395 12.02709009 67.30968662 11 70 C4.10550274 47.62114005 -0.37851142 23.49925053 0 0 Z " fill="#230D04" transform="translate(180,522)"/>
<path d="M0 0 C4.29 0.33 8.58 0.66 13 1 C3.71704242 10.28295758 -21.07982028 9.1613066 -33.375 9.1875 C-40.61333994 9.14010799 -47.79549866 8.71281285 -55 8 C-55 7.67 -55 7.34 -55 7 C-53.73293213 6.97494385 -52.46586426 6.9498877 -51.16040039 6.92407227 C-46.47702221 6.83018004 -41.7937987 6.72991565 -37.1105957 6.62768555 C-35.08035896 6.58426759 -33.05008408 6.54259774 -31.01977539 6.50268555 C-28.10811849 6.44514854 -25.19665486 6.38140722 -22.28515625 6.31640625 C-20.91485008 6.29133751 -20.91485008 6.29133751 -19.51686096 6.26576233 C-15.43210684 6.5769315 -15.43210684 6.5769315 -12 5 C-9.14471393 4.599617 -6.30263513 4.2481773 -3.4375 3.9375 C-2.63119141 3.84662109 -1.82488281 3.75574219 -0.99414062 3.66210938 C1.00347377 3.43752551 3.0016856 3.21826764 5 3 C5 2.34 5 1.68 5 1 C3.35 1 1.7 1 0 1 C0 0.67 0 0.34 0 0 Z " fill="#0C141E" transform="translate(543,688)"/>
<path d="M0 0 C0.33 0 0.66 0 1 0 C0.65820312 5.12695312 0.65820312 5.12695312 0.31640625 10.25390625 C0.27008057 10.97908447 0.22375488 11.7042627 0.17602539 12.45141602 C0.04784784 14.30723494 -0.09867565 16.16181408 -0.25610352 18.01538086 C-1.21454161 30.15361234 -1.11131603 42.26941434 -1.0625 54.4375 C-1.05747269 56.63346252 -1.05291197 58.82942615 -1.04882812 61.02539062 C-1.03792534 66.35028528 -1.02128574 71.67513724 -1 77 C-1.33 77 -1.66 77 -2 77 C-2.8489009 73.31776925 -3.12642998 69.91539442 -3.12939453 66.13989258 C-3.13254669 64.985522 -3.13569885 63.83115143 -3.13894653 62.64179993 C-3.1369223 61.40520126 -3.13489807 60.1686026 -3.1328125 58.89453125 C-3.13376923 57.61897873 -3.13472595 56.34342621 -3.13571167 55.02922058 C-3.13639152 52.33690987 -3.13505421 49.64469025 -3.13037109 46.95239258 C-3.12465693 43.49889656 -3.12796757 40.04547797 -3.13394356 36.59198475 C-3.13841909 33.29699744 -3.13528947 30.00201957 -3.1328125 26.70703125 C-3.13483673 25.46435989 -3.13686096 24.22168854 -3.13894653 22.94136047 C-3.13579437 21.79644638 -3.13264221 20.65153229 -3.12939453 19.47192383 C-3.12859894 18.46108231 -3.12780334 17.45024078 -3.12698364 16.4087677 C-3 14 -3 14 -2 12 C-1.68744353 9.14792222 -1.48962518 6.29503146 -1.28125 3.43359375 C-1 1 -1 1 0 0 Z " fill="#0C1624" transform="translate(244,258)"/>
<path d="M0 0 C-2.78652906 1.52543191 -5.1945762 2.35914769 -8.328125 2.8515625 C-9.12734375 2.98046875 -9.9265625 3.109375 -10.75 3.2421875 C-11.575 3.36851562 -12.4 3.49484375 -13.25 3.625 C-14.09046875 3.7590625 -14.9309375 3.893125 -15.796875 4.03125 C-17.86365501 4.36005591 -19.93171161 4.68081969 -22 5 C-19.525 5.495 -19.525 5.495 -17 6 C-17.33 6.66 -17.66 7.32 -18 8 C-20.25 8.37890625 -20.25 8.37890625 -23 8.5625 C-26.30759619 8.53480538 -26.30759619 8.53480538 -29 10 C-30.68608966 10.07205511 -32.37500659 10.08386068 -34.0625 10.0625 C-34.98160156 10.05347656 -35.90070312 10.04445313 -36.84765625 10.03515625 C-37.55792969 10.02355469 -38.26820313 10.01195312 -39 10 C-39.33 9.34 -39.66 8.68 -40 8 C-36.535 7.505 -36.535 7.505 -33 7 C-35.31 6.67 -37.62 6.34 -40 6 C-40 5.67 -40 5.34 -40 5 C-35.59045417 4.27988654 -31.17966076 3.56813112 -26.76757812 2.86376953 C-25.26982126 2.6234963 -23.77241519 2.38102487 -22.27539062 2.13623047 C-20.11158485 1.78280886 -17.94660041 1.43756536 -15.78125 1.09375 C-14.48251953 0.88427734 -13.18378906 0.67480469 -11.84570312 0.45898438 C-7.82472847 -0.02091864 -4.04316518 -0.0786608 0 0 Z " fill="#1B0E06" transform="translate(600,819)"/>
<path d="M0 0 C10.70088734 -0.55033135 20.95861797 0.33960879 31.5625 1.875 C33.36315918 2.13555176 33.36315918 2.13555176 35.20019531 2.40136719 C41.23381623 3.31442702 47.11433176 4.38489697 53 6 C53 6.33 53 6.66 53 7 C52.00097656 6.98839844 51.00195312 6.97679687 49.97265625 6.96484375 C48.68230469 6.95582031 47.39195312 6.94679688 46.0625 6.9375 C44.13083984 6.92009766 44.13083984 6.92009766 42.16015625 6.90234375 C39.13701597 6.63467451 39.13701597 6.63467451 38 8 C35.81360547 8.07258946 33.62499611 8.08373783 31.4375 8.0625 C29.64119141 8.04896484 29.64119141 8.04896484 27.80859375 8.03515625 C26.88175781 8.02355469 25.95492188 8.01195312 25 8 C25 7.34 25 6.68 25 6 C28.96 6 32.92 6 37 6 C37 5.34 37 4.68 37 4 C36.2874707 4.01740234 35.57494141 4.03480469 34.84082031 4.05273438 C27.0268678 4.15911558 19.49152224 3.51453243 11.75 2.5 C10.61175781 2.35691406 9.47351563 2.21382813 8.30078125 2.06640625 C5.53294558 1.7175194 2.76614911 1.36197404 0 1 C0 0.67 0 0.34 0 0 Z " fill="#0C151D" transform="translate(399,421)"/>
<path d="M0 0 C3.7499837 -0.02905924 7.49993837 -0.04681874 11.25 -0.0625 C12.84521484 -0.07506836 12.84521484 -0.07506836 14.47265625 -0.08789062 C15.49746094 -0.09111328 16.52226562 -0.09433594 17.578125 -0.09765625 C18.99206543 -0.10551147 18.99206543 -0.10551147 20.43457031 -0.11352539 C22.79291324 -0.009164 24.73483058 0.38483212 27 1 C28.66623639 1.03786901 30.33397597 1.04627845 32 1 C25.65798217 5.22801188 17.36698145 4.15201827 10 4.125 C8.41832031 4.13080078 8.41832031 4.13080078 6.8046875 4.13671875 C1.42903565 4.12998234 -3.70544744 3.94760458 -9 3 C-9 2.67 -9 2.34 -9 2 C-4.545 1.505 -4.545 1.505 0 1 C0 0.67 0 0.34 0 0 Z " fill="#F17B0C" transform="translate(465,672)"/>
<path d="M0 0 C2.48659621 2.48659621 3.0343111 4.60483946 4.125 7.9375 C4.47820312 8.99839844 4.83140625 10.05929687 5.1953125 11.15234375 C6 14 6 14 6 17 C5.34 17 4.68 17 4 17 C4 15.68 4 14.36 4 13 C3.34 13 2.68 13 2 13 C2 14.65 2 16.3 2 18 C2.66 18 3.32 18 4 18 C4 19.32 4 20.64 4 22 C3.34 22 2.68 22 2 22 C2 21.01 2 20.02 2 19 C1.34 19 0.68 19 0 19 C0 22.63 0 26.26 0 30 C-4.26457818 21.47084365 -3.11072401 11.33772459 -3 2 C-2.67 2 -2.34 2 -2 2 C-1.67 5.63 -1.34 9.26 -1 13 C-0.67 8.71 -0.34 4.42 0 0 Z " fill="#0C131C" transform="translate(303,624)"/>
<path d="M0 0 C1.51883929 2.81612276 2.46229033 5.43166891 3.19140625 8.54296875 C3.51842529 9.8885083 3.51842529 9.8885083 3.85205078 11.26123047 C4.08649902 12.22689941 4.32094727 13.19256836 4.5625 14.1875 C6.80165476 23.09410602 9.49413695 31.74172102 12.625 40.375 C12.9969751 41.40133545 13.3689502 42.4276709 13.75219727 43.48510742 C15.73057184 48.84029457 17.85379971 54.07543804 20.27880859 59.24462891 C21 61 21 61 21 63 C19.0625 62.3125 19.0625 62.3125 17 61 C16.62265957 59.3427423 16.29642552 57.67362505 16 56 C15.42701649 54.28391946 14.81767966 52.5797068 14.1796875 50.88671875 C13.62849243 49.40244385 13.62849243 49.40244385 13.06616211 47.88818359 C12.67307861 46.83195801 12.27999512 45.77573242 11.875 44.6875 C8.63503662 35.82277233 5.61647356 26.92587201 2.9375 17.875 C2.48963135 16.39326294 2.48963135 16.39326294 2.03271484 14.8815918 C0.54666673 9.74518847 -0.34812799 5.34783841 0 0 Z " fill="#1D0B05" transform="translate(137,546)"/>
<path d="M0 0 C0 0.66 0 1.32 0 2 C4.29 2.33 8.58 2.66 13 3 C13 3.66 13 4.32 13 5 C7.06 5 1.12 5 -5 5 C-5 4.34 -5 3.68 -5 3 C-7.56280208 3.14154136 -10.12515485 3.28808562 -12.6875 3.4375 C-13.40873047 3.47681641 -14.12996094 3.51613281 -14.87304688 3.55664062 C-18.67925296 3.7825798 -22.26123859 4.22109137 -26 5 C-27.43628457 5.06266512 -28.8750555 5.08686347 -30.3125 5.0625 C-32.1378125 5.0315625 -32.1378125 5.0315625 -34 5 C-31.01355231 3.32927811 -28.46138423 2.6071084 -25.078125 2.1484375 C-24.13453125 2.01953125 -23.1909375 1.890625 -22.21875 1.7578125 C-21.2390625 1.63148438 -20.259375 1.50515625 -19.25 1.375 C-17.80367187 1.17390625 -17.80367187 1.17390625 -16.328125 0.96875 C-10.83244075 0.2369877 -5.54286716 -0.14448232 0 0 Z " fill="#1B0F09" transform="translate(613,420)"/>
<path d="M0 0 C3.52105163 0.14156495 7.04177889 0.28810905 10.5625 0.4375 C11.55314453 0.47681641 12.54378906 0.51613281 13.56445312 0.55664062 C14.53447266 0.59853516 15.50449219 0.64042969 16.50390625 0.68359375 C17.38892822 0.72025146 18.2739502 0.75690918 19.18579102 0.79467773 C22.47303596 1.0345123 25.73714389 1.5338777 29 2 C29 11.57 29 21.14 29 31 C28.67 31 28.34 31 28 31 C27.505 17.14 27.505 17.14 27 3 C19.08 3 11.16 3 3 3 C3.66 5.64 4.32 8.28 5 11 C5.20992436 13.72061968 5.09771582 16.263957 5 19 C4.67 19 4.34 19 4 19 C2.68 12.73 1.36 6.46 0 0 Z " fill="#170602" transform="translate(616,615)"/>
<path d="M0 0 C-7.36897561 3.06446761 -14.01790621 4.69121494 -22 5 C-21.65775391 6.46759766 -21.65775391 6.46759766 -21.30859375 7.96484375 C-19.69352355 15.20080149 -18.40276146 21.62812979 -20 29 C-20.66 29.99 -21.32 30.98 -22 32 C-22.33 30.68 -22.66 29.36 -23 28 C-22.34 28 -21.68 28 -21 28 C-21.165 27.319375 -21.33 26.63875 -21.5 25.9375 C-22.07089059 22.5835178 -22.06659023 19.39610195 -22 16 C-22.66 18.31 -23.32 20.62 -24 23 C-24.33 23 -24.66 23 -25 23 C-25.24613739 16.47735909 -24.53020433 10.35537418 -23 4 C-20.67854049 1.67854049 -15.53677338 2.02500118 -12.39453125 1.59765625 C-8.97952918 1.089993 -8.97952918 1.089993 -5.76171875 -0.12890625 C-3 -1 -3 -1 0 0 Z " fill="#180B05" transform="translate(536,630)"/>
<path d="M0 0 C0.66 0.66 1.32 1.32 2 2 C1.76519393 9.38334653 -0.85711276 16.03491539 -3.3125 22.9375 C-3.8993457 24.63036133 -3.8993457 24.63036133 -4.49804688 26.35742188 C-6.72634821 32.70974358 -9.13362785 38.90760433 -12 45 C-13 42 -13 42 -12 39.875 C-10.57395625 35.77512423 -11.31962692 32.22015194 -12 28 C-10.35 28 -8.7 28 -7 28 C-6.81824219 27.39414062 -6.63648438 26.78828125 -6.44921875 26.1640625 C-6.19785156 25.32617188 -5.94648438 24.48828125 -5.6875 23.625 C-5.41550781 22.71234375 -5.14351563 21.7996875 -4.86328125 20.859375 C-4.31167316 19.03232919 -3.747756 17.20892493 -3.16796875 15.390625 C-1.54178953 10.2317116 -0.49899503 5.38914637 0 0 Z " fill="#180B08" transform="translate(477,508)"/>
<path d="M0 0 C-0.66 3.63 -1.32 7.26 -2 11 C-2.33 11 -2.66 11 -3 11 C-2.67 8.03 -2.34 5.06 -2 2 C-2.87140625 2.0721875 -3.7428125 2.144375 -4.640625 2.21875 C-12.44799618 2.82711659 -20.170063 3.1290649 -28 3 C-27.98839844 3.81339844 -27.97679687 4.62679687 -27.96484375 5.46484375 C-27.88962685 15.01739002 -28.35408949 24.47281995 -29 34 C-29.33 34 -29.66 34 -30 34 C-30.10194194 23.27344291 -30.07419152 12.68436922 -29 2 C-24.75191887 1.01840456 -20.52778993 0.6865665 -16.1875 0.4375 C-15.51396484 0.39431641 -14.84042969 0.35113281 -14.14648438 0.30664062 C-9.42360119 0.02191178 -4.73124259 -0.03708701 0 0 Z " fill="#1D0C05" transform="translate(408,615)"/>
<path d="M0 0 C0.33 0 0.66 0 1 0 C1 2.66666667 1 5.33333333 1 8 C1.66 8 2.32 8 3 8 C3.20086443 11.71599191 3.1519437 12.77208445 1 16 C0.75753217 19.20379124 0.75753217 19.20379124 0.875 22.6875 C0.89304687 23.86699219 0.91109375 25.04648438 0.9296875 26.26171875 C0.95289063 27.16535156 0.97609375 28.06898438 1 29 C0.34 29 -0.32 29 -1 29 C-1.33 25.7 -1.66 22.4 -2 19 C-2.66 23.62 -3.32 28.24 -4 33 C-4.33 33 -4.66 33 -5 33 C-4.69191308 21.55457089 -2.94268902 11.05903594 0 0 Z " fill="#1C0D07" transform="translate(540,211)"/>
<path d="M0 0 C0.33 0 0.66 0 1 0 C1.26484733 7.37158401 0.86684862 14.60840164 0.125 21.9375 C0.04652832 22.75387939 -0.03194336 23.57025879 -0.11279297 24.41137695 C-0.56214893 28.59055991 -1.15511893 32.16295745 -3 36 C-4.67666168 32.64667665 -3.53482999 28.98935125 -3.0625 25.375 C-2.96259766 24.57320312 -2.86269531 23.77140625 -2.75976562 22.9453125 C-2.5119582 20.96285309 -2.25668193 18.98132991 -2 17 C-2.19335938 17.85464844 -2.38671875 18.70929687 -2.5859375 19.58984375 C-2.84632813 20.69457031 -3.10671875 21.79929687 -3.375 22.9375 C-3.63023437 24.03964844 -3.88546875 25.14179687 -4.1484375 26.27734375 C-4.42945313 27.17582031 -4.71046875 28.07429687 -5 29 C-5.66 29.33 -6.32 29.66 -7 30 C-6.27369486 23.51841619 -4.62079475 17.35435114 -2.9375 11.0625 C-2.65583984 9.99708984 -2.37417969 8.93167969 -2.08398438 7.83398438 C-1.39284202 5.22170055 -0.69809111 2.61043381 0 0 Z " fill="#200A03" transform="translate(842,523)"/>
<path d="M0 0 C1.11375 0.495 1.11375 0.495 2.25 1 C5.13883312 2.22782871 5.13883312 2.22782871 9 2 C9.33 1.34 9.66 0.68 10 0 C15.5930976 4.76008307 20.86877855 9.74595676 26 15 C25.67 15.99 25.34 16.98 25 18 C24.55269531 17.48050781 24.10539063 16.96101563 23.64453125 16.42578125 C20.21798969 12.47320346 16.75553321 8.64172918 13 5 C12.01 5.495 12.01 5.495 11 6 C11 5.34 11 4.68 11 4 C10.34 4 9.68 4 9 4 C9 4.66 9 5.32 9 6 C8.34 6 7.68 6 7 6 C7 5.34 7 4.68 7 4 C6.34 4 5.68 4 5 4 C5.51691406 4.75925781 6.03382813 5.51851563 6.56640625 6.30078125 C7.22511719 7.29464844 7.88382813 8.28851563 8.5625 9.3125 C9.22378906 10.29863281 9.88507812 11.28476562 10.56640625 12.30078125 C11.03949219 13.19152344 11.51257813 14.08226562 12 15 C11.67 15.99 11.34 16.98 11 18 C9.35270289 15.3759159 7.70741379 12.75057863 6.0625 10.125 C5.59392578 9.37863281 5.12535156 8.63226563 4.64257812 7.86328125 C4.19462891 7.14785156 3.74667969 6.43242187 3.28515625 5.6953125 C2.87144775 5.03547363 2.45773926 4.37563477 2.03149414 3.69580078 C1 2 1 2 0 0 Z " fill="#190A07" transform="translate(564,293)"/>
<path d="M0 0 C6.55377097 5.38640924 12.47246635 11.35885127 18.4375 17.375 C19.46525983 18.40778595 20.49325285 19.44033991 21.52148438 20.47265625 C24.01701598 22.97910287 26.50938082 25.4886708 29 28 C25.51038791 28 23.88519705 27.09620626 20.8125 25.5 C19.46091797 24.80390625 19.46091797 24.80390625 18.08203125 24.09375 C17.39496094 23.7328125 16.70789063 23.371875 16 23 C16.66 22.67 17.32 22.34 18 22 C17.505 21.54625 17.01 21.0925 16.5 20.625 C15 19 15 19 15 17 C14.34 16.67 13.68 16.34 13 16 C12.07396481 14.98508836 11.18263189 13.93822965 10.3125 12.875 C7.50902242 9.51774907 4.49624999 6.48454815 1.3203125 3.48046875 C0 2 0 2 0 0 Z " fill="#25110B" transform="translate(283,704)"/>
<path d="M0 0 C0.33 0 0.66 0 1 0 C1 3.96 1 7.92 1 12 C1.99 12.33 2.98 12.66 4 13 C2.68 13 1.36 13 0 13 C0 13.66 0 14.32 0 15 C0.59014893 14.98952637 1.18029785 14.97905273 1.78833008 14.96826172 C4.46301004 14.92667956 7.13762197 14.9006671 9.8125 14.875 C10.74126953 14.85824219 11.67003906 14.84148437 12.62695312 14.82421875 C13.51962891 14.81777344 14.41230469 14.81132812 15.33203125 14.8046875 C16.15421143 14.79421387 16.9763916 14.78374023 17.82348633 14.77294922 C20 15 20 15 23 17 C14.42 17 5.84 17 -3 17 C-2.690625 14.56625 -2.38125 12.1325 -2.0625 9.625 C-1.91953491 8.47765381 -1.91953491 8.47765381 -1.77368164 7.30712891 C-1.11111111 2.22222222 -1.11111111 2.22222222 0 0 Z " fill="#081321" transform="translate(538,228)"/>
<path d="M0 0 C2.0625 0.4375 2.0625 0.4375 4 1 C3.01 1 2.02 1 1 1 C1 11.23 1 21.46 1 32 C-3.455 31.01 -3.455 31.01 -8 30 C-4.86650268 28.95550089 -4.01031744 29.06576355 -1 30 C-1.00523682 29.12674072 -1.01047363 28.25348145 -1.01586914 27.35375977 C-1.03287751 24.12410727 -1.04543369 20.89447755 -1.05493164 17.66479492 C-1.0599708 16.26504772 -1.06680216 14.8653058 -1.07543945 13.46557617 C-1.0875232 11.45754223 -1.09269807 9.44947043 -1.09765625 7.44140625 C-1.10289307 6.23170166 -1.10812988 5.02199707 -1.11352539 3.77563477 C-1 1 -1 1 0 0 Z " fill="#DB7E1F" transform="translate(238,430)"/>
<path d="M0 0 C5.23272633 1.63958758 10.15196636 3.38952035 15 6 C14.67 6.66 14.34 7.32 14 8 C13.236875 7.67 12.47375 7.34 11.6875 7 C9.00930865 5.82563314 9.00930865 5.82563314 6 6 C7.65 6.33 9.3 6.66 11 7 C11 7.66 11 8.32 11 9 C10.34 9 9.68 9 9 9 C13.60646193 15.33523443 13.60646193 15.33523443 19 21 C18.67 21.66 18.34 22.32 18 23 C10.8097305 16.53277436 5.31392077 9.02532706 0 1 C0 0.67 0 0.34 0 0 Z " fill="#130807" transform="translate(192,446)"/>
<path d="M0 0 C0.33 0 0.66 0 1 0 C1.33 1.65 1.66 3.3 2 5 C4.51083114 3.74458443 4.87125446 2.49936512 6 0 C6.11354457 6.7495936 6.05996573 13.32221592 5 20 C4.34 20.66 3.68 21.32 3 22 C3 18.04 3 14.08 3 10 C2.34 10 1.68 10 1 10 C1 8.68 1 7.36 1 6 C0.34 6 -0.32 6 -1 6 C-1 7.32 -1 8.64 -1 10 C-1.66 10 -2.32 10 -3 10 C-3 8.35 -3 6.7 -3 5 C-2.34 5 -1.68 5 -1 5 C-0.67 3.35 -0.34 1.7 0 0 Z " fill="#0C131C" transform="translate(718,630)"/>
<path d="M0 0 C1.05441284 0.18888794 1.05441284 0.18888794 2.13012695 0.3815918 C7.18507684 1.37257684 7.18507684 1.37257684 9.4375 3.625 C8.4475 3.46902344 7.4575 3.31304687 6.4375 3.15234375 C-0.46908105 2.11456279 -6.62814501 1.4496856 -13.5625 2.625 C-16.8978019 2.71670874 -20.2267858 2.68651932 -23.5625 2.625 C-23.8925 1.965 -24.2225 1.305 -24.5625 0.625 C-16.52851708 -2.95675793 -8.41013185 -1.52834252 0 0 Z " fill="#150C0A" transform="translate(762.5625,426.375)"/>
<path d="M0 0 C0.33 0 0.66 0 1 0 C1.94670129 6.30148044 2.08951798 12.38527165 2 18.75 C1.9744274 20.59889886 1.95341685 22.44786781 1.9375 24.296875 C1.92589844 25.10479492 1.91429687 25.91271484 1.90234375 26.74511719 C1.99854797 28.96647258 2.38075833 30.87044251 3 33 C2.34 33 1.68 33 1 33 C0.67 34.98 0.34 36.96 0 39 C-0.66 39 -1.32 39 -2 39 C-1.93433838 38.29907227 -1.86867676 37.59814453 -1.80102539 36.87597656 C-1.08514629 28.83762064 -0.70456748 20.81456229 -0.4375 12.75 C-0.39431641 11.51636719 -0.35113281 10.28273438 -0.30664062 9.01171875 C-0.20185595 6.00789133 -0.0996846 3.00400025 0 0 Z " fill="#DE8224" transform="translate(725,618)"/>
<path d="M0 0 C-3.12936175 2.76852718 -5.05053813 3.36539759 -9.203125 3.29296875 C-10.67265625 3.2784668 -10.67265625 3.2784668 -12.171875 3.26367188 C-13.69554687 3.2259668 -13.69554687 3.2259668 -15.25 3.1875 C-16.28125 3.17396484 -17.3125 3.16042969 -18.375 3.14648438 C-20.91719792 3.11117607 -23.45833223 3.06186036 -26 3 C-18.19358837 -2.20427442 -8.94281452 -2.05110425 0 0 Z " fill="#EF8216" transform="translate(307,189)"/>
<path d="M0 0 C1.89575251 -0.02721176 3.79161979 -0.04649136 5.6875 -0.0625 C6.74324219 -0.07410156 7.79898437 -0.08570313 8.88671875 -0.09765625 C11.72410262 -0.00865425 14.2438919 0.35060162 17 1 C17 1.99 17 2.98 17 4 C21.95 5.98 21.95 5.98 27 8 C22.65801193 9.08549702 21.62690796 8.80971676 17.578125 7.34765625 C16.55332031 6.98349609 15.52851563 6.61933594 14.47265625 6.24414062 C13.40917969 5.85419922 12.34570312 5.46425781 11.25 5.0625 C10.17105469 4.67642578 9.09210938 4.29035156 7.98046875 3.89257812 C5.31672804 2.9378746 2.65695582 1.97339357 0 1 C0 0.67 0 0.34 0 0 Z " fill="#EF8217" transform="translate(366,800)"/>
<path d="M0 0 C0.63808594 0.08378906 1.27617187 0.16757812 1.93359375 0.25390625 C3.17302734 0.40666016 3.17302734 0.40666016 4.4375 0.5625 C5.26121094 0.66691406 6.08492188 0.77132813 6.93359375 0.87890625 C7.61550781 0.91886719 8.29742187 0.95882813 9 1 C9.33 0.67 9.66 0.34 10 0 C11.99958364 -0.04080783 14.00045254 -0.04254356 16 0 C15.01 0.33 14.02 0.66 13 1 C13 1.66 13 2.32 13 3 C22.27402919 4.88284826 31.60269048 5.9644231 41 7 C41 7.33 41 7.66 41 8 C26.87664446 8.80790381 13.37912183 5.11826094 0 1 C0 0.67 0 0.34 0 0 Z " fill="#E6851E" transform="translate(475,432)"/>
<path d="M0 0 C0.33 1.32 0.66 2.64 1 4 C1.66 4 2.32 4 3 4 C3 2.68 3 1.36 3 0 C3.66 0 4.32 0 5 0 C5 1.32 5 2.64 5 4 C5.66 4 6.32 4 7 4 C7 8.29 7 12.58 7 17 C6.67 17 6.34 17 6 17 C6 13.7 6 10.4 6 7 C5.01 7.33 4.02 7.66 3 8 C3 7.34 3 6.68 3 6 C2.01 6.33 1.02 6.66 0 7 C-1.17248853 9.29283166 -1.17248853 9.29283166 -2.0625 12 C-3.79465056 16.89732528 -3.79465056 16.89732528 -6 18 C-4.23536928 11.89262558 -2.30442525 5.92566493 0 0 Z " fill="#1F1008" transform="translate(714,636)"/>
<path d="M0 0 C-0.99 0.33 -1.98 0.66 -3 1 C-3.99 1.495 -3.99 1.495 -5 2 C-7.3329866 2.04022391 -9.66706666 2.04320247 -12 2 C-10.68 1.67 -9.36 1.34 -8 1 C-8 0.34 -8 -0.32 -8 -1 C-10.72998676 -0.88562349 -13.4584582 -0.75888594 -16.1875 -0.625 C-16.95642578 -0.5940625 -17.72535156 -0.563125 -18.51757812 -0.53125 C-22.8140145 -0.30997431 -26.0020978 0.31898079 -30 2 C-30.99 1.67 -31.98 1.34 -33 1 C-22.43378659 -4.65169554 -11.00425026 -4.47630519 0 0 Z " fill="#E1821E" transform="translate(528,478)"/>
<path d="M0 0 C0.66 0.33 1.32 0.66 2 1 C1.67 1.61875 1.34 2.2375 1 2.875 C-0.14193235 4.91018344 -0.14193235 4.91018344 0 7 C-0.99 7.33 -1.98 7.66 -3 8 C-3.92181056 9.69041627 -3.92181056 9.69041627 -4.5 11.7890625 C-4.7475 12.56636719 -4.995 13.34367187 -5.25 14.14453125 C-5.4975 14.96308594 -5.745 15.78164063 -6 16.625 C-7.74499767 22.23262273 -9.58641729 27.64127171 -12 33 C-13.7303433 29.53931339 -11.64099249 26.16032206 -10.48828125 22.63476562 C-10.12089844 21.53841797 -9.75351562 20.44207031 -9.375 19.3125 C-9.03082031 18.23548828 -8.68664062 17.15847656 -8.33203125 16.04882812 C-6.28507091 9.88906369 -4.10921208 5.03919166 0 0 Z " fill="#E5831B" transform="translate(492,481)"/>
<path d="M0 0 C2.66673742 -0.02727345 5.33318869 -0.04696948 8 -0.0625 C8.74378906 -0.07087891 9.48757813 -0.07925781 10.25390625 -0.08789062 C15.26148844 -0.10966272 20.04279032 0.28458451 25 1 C25 2.65 25 4.3 25 6 C24.34 5.67 23.68 5.34 23 5 C23 4.01 23 3.02 23 2 C16.4 2 9.8 2 3 2 C3 4.31 3 6.62 3 9 C0.87491756 5.81237635 0.4979837 3.73487777 0 0 Z " fill="#0B1523" transform="translate(618,617)"/>
<path d="M0 0 C0.33 0 0.66 0 1 0 C1.19087163 8.45137164 1.22904941 16.43746792 -0.56640625 24.74609375 C-1.10787732 27.13931935 -1.10787732 27.13931935 -0.9375 30.1875 C-1.02725759 34.22659172 -2.45917601 37.27634202 -4 41 C-4.33 41 -4.66 41 -5 41 C-4.29153787 33.24025595 -3.25495114 25.5604151 -2.10546875 17.85546875 C-1.23427811 11.91553257 -0.54584854 5.97864699 0 0 Z " fill="#E3851F" transform="translate(842,535)"/>
<path d="M0 0 C0.33 0 0.66 0 1 0 C1.35513992 9.2994047 0.91739906 18.2201762 -0.375 27.4375 C-0.50108643 28.36715576 -0.62717285 29.29681152 -0.75708008 30.25463867 C-0.88622803 31.11806885 -1.01537598 31.98149902 -1.1484375 32.87109375 C-1.26364746 33.64380615 -1.37885742 34.41651855 -1.49755859 35.21264648 C-1.74626709 36.09738647 -1.74626709 36.09738647 -2 37 C-2.99 37.495 -2.99 37.495 -4 38 C-3.90912109 37.03513672 -3.90912109 37.03513672 -3.81640625 36.05078125 C-3.13534888 28.70583942 -2.54964364 21.35586909 -2 14 C-1.34 14 -0.68 14 0 14 C0 9.38 0 4.76 0 0 Z " fill="#071526" transform="translate(895,488)"/>
<path d="M0 0 C1.2077558 3.62326739 0.54311128 4.64146369 -1 8 C-0.34 8.66 0.32 9.32 1 10 C-2.72143296 13.91447559 -6.14032976 17.49653351 -11 20 C-9.68332049 17.32500685 -8.30154238 14.70558937 -6.8359375 12.109375 C-6.43632813 11.40039062 -6.03671875 10.69140625 -5.625 9.9609375 C-5.2125 9.23132813 -4.8 8.50171875 -4.375 7.75 C-3.95476563 7.00492188 -3.53453125 6.25984375 -3.1015625 5.4921875 C-2.06856935 3.66097237 -1.03440045 1.83042056 0 0 Z " fill="#11090A" transform="translate(565,762)"/>
<path d="M0 0 C0.66 0.33 1.32 0.66 2 1 C0.7934375 1.4021875 0.7934375 1.4021875 -0.4375 1.8125 C-1.283125 2.204375 -2.12875 2.59625 -3 3 C-3.33 3.99 -3.66 4.98 -4 6 C-4.99 6.33 -5.98 6.66 -7 7 C-7.33 7.66 -7.66 8.32 -8 9 C-13 9 -18 9 -23 9 C-18.73435994 6.64954527 -14.10385705 5.33424546 -9.48828125 3.85546875 C-6.77588353 2.97299205 -4.19104892 2.09934544 -1.65625 0.78125 C-1.1096875 0.5234375 -0.563125 0.265625 0 0 Z " fill="#E57C18" transform="translate(435,583)"/>
<path d="M0 0 C0.99 0.66 1.98 1.32 3 2 C2.87431641 3.37285156 2.87431641 3.37285156 2.74609375 4.7734375 C2.64425781 5.96195312 2.54242187 7.15046875 2.4375 8.375 C2.33308594 9.55835938 2.22867188 10.74171875 2.12109375 11.9609375 C1.75846404 14.91898631 1.75846404 14.91898631 3 17 C1.68 16.67 0.36 16.34 -1 16 C-2.55053541 11.34839376 -2.82489894 6.06224735 -1 1.5 C-0.67 1.005 -0.34 0.51 0 0 Z " fill="#F88111" transform="translate(770,367)"/>
<path d="M0 0 C0.33 0 0.66 0 1 0 C1.33 1.98 1.66 3.96 2 6 C1.34 6 0.68 6 0 6 C0 7.98 0 9.96 0 12 C0.33 10.35 0.66 8.7 1 7 C1.66 7.66 2.32 8.32 3 9 C2.875 11.5 2.875 11.5 2 14 C-0.0625 15.3125 -0.0625 15.3125 -2 16 C-2 16.66 -2 17.32 -2 18 C-2.66 18 -3.32 18 -4 18 C-3.5256323 15.18661171 -3.04575381 12.37436287 -2.5625 9.5625 C-2.42779297 8.76005859 -2.29308594 7.95761719 -2.15429688 7.13085938 C-1.11328125 1.11328125 -1.11328125 1.11328125 0 0 Z " fill="#1B0F09" transform="translate(888,534)"/>
<path d="M0 0 C4.62 0 9.24 0 14 0 C13.67 0.66 13.34 1.32 13 2 C9.04 2 5.08 2 1 2 C0.67 5.63 0.34 9.26 0 13 C-0.66 13 -1.32 13 -2 13 C-2.18393122 7.57402889 -2.09708587 5.24271468 0 0 Z " fill="#0B131C" transform="translate(623,621)"/>
<path d="M0 0 C2.24538034 3.84344382 3.1026736 7.9638019 4.125 12.25 C4.30675781 12.99507812 4.48851562 13.74015625 4.67578125 14.5078125 C5.12147499 16.3375026 5.56131959 18.16861575 6 20 C5.34 20 4.68 20 4 20 C4 21.65 4 23.3 4 25 C1.93147447 21.49741264 1.42179085 18.19295993 0.875 14.1875 C0.70742187 13.00542969 0.53984375 11.82335937 0.3671875 10.60546875 C0.00427967 7.04202276 -0.06415721 3.57905598 0 0 Z " fill="#0C1623" transform="translate(183,539)"/>
<path d="M0 0 C0.98291016 0.04833984 1.96582031 0.09667969 2.97851562 0.14648438 C4.51475586 0.2305957 4.51475586 0.2305957 6.08203125 0.31640625 C7.11779297 0.36861328 8.15355469 0.42082031 9.22070312 0.47460938 C11.77895174 0.60429018 14.33681063 0.73925603 16.89453125 0.87890625 C16.89453125 1.20890625 16.89453125 1.53890625 16.89453125 1.87890625 C13.061672 2.21784206 9.22818034 2.54903412 5.39453125 2.87890625 C4.316875 2.97429687 3.23921875 3.0696875 2.12890625 3.16796875 C-3.64109119 3.66052951 -9.31470428 3.99134828 -15.10546875 3.87890625 C-15.10546875 3.54890625 -15.10546875 3.21890625 -15.10546875 2.87890625 C-12.79546875 2.87890625 -10.48546875 2.87890625 -8.10546875 2.87890625 C-8.10546875 2.21890625 -8.10546875 1.55890625 -8.10546875 0.87890625 C-5.02085369 -0.14929877 -3.20861636 -0.16692224 0 0 Z " fill="#F0871F" transform="translate(612.10546875,417.12109375)"/>
<path d="M0 0 C6.27 0 12.54 0 19 0 C13.00757235 3.99495177 5.53216649 3.12773086 -1.4375 3.0625 C-2.35982422 3.05798828 -3.28214844 3.05347656 -4.23242188 3.04882812 C-6.48835048 3.03713938 -8.74413967 3.02075455 -11 3 C-11 2.67 -11 2.34 -11 2 C-7.37 2 -3.74 2 0 2 C0 1.34 0 0.68 0 0 Z " fill="#F68B1D" transform="translate(478,673)"/>
<path d="M0 0 C0.33 0 0.66 0 1 0 C1.33 2.64 1.66 5.28 2 8 C2.33 6.35 2.66 4.7 3 3 C3.66 3 4.32 3 5 3 C5.49230769 10.26153846 5.49230769 10.26153846 3 14 C2.34 14.66 1.68 15.32 1 16 C0.34 15.34 -0.32 14.68 -1 14 C-0.9765625 10.7421875 -0.9765625 10.7421875 -0.625 6.875 C-0.51414062 5.59367187 -0.40328125 4.31234375 -0.2890625 2.9921875 C-0.19367187 2.00476563 -0.09828125 1.01734375 0 0 Z " fill="#21120B" transform="translate(778,339)"/>
<path d="M0 0 C6.71739711 2.20242528 13.36634338 4.55732644 20 7 C16.17591794 8.27469402 14.76261161 7.25420387 11 6 C7.74955291 5.83201531 7.74955291 5.83201531 5 6 C4.67 6.66 4.34 7.32 4 8 C2.68 5.36 1.36 2.72 0 0 Z " fill="#EA8219" transform="translate(450,746)"/>
<path d="M0 0 C1.04478472 3.39555034 1.30152754 6.45705143 1 10 C-0.5 11.875 -0.5 11.875 -2 13 C-1.34 13 -0.68 13 0 13 C-0.33 13.99 -0.66 14.98 -1 16 C-1.66 15.67 -2.32 15.34 -3 15 C-3.33 15.99 -3.66 16.98 -4 18 C-4.66 18 -5.32 18 -6 18 C-4.41039668 11.76559832 -2.72399099 5.83712355 0 0 Z " fill="#EF8216" transform="translate(831,595)"/>
<path d="M0 0 C5.94 0 11.88 0 18 0 C18 0.33 18 0.66 18 1 C15.69 1.33 13.38 1.66 11 2 C11.99 2.66 12.98 3.32 14 4 C10.04 4 6.08 4 2 4 C2 3.34 2 2.68 2 2 C1.34 1.34 0.68 0.68 0 0 Z " fill="#F47D0F" transform="translate(406,416)"/>
<path d="M0 0 C2.33058639 3.49587959 3.19132 6.92041315 4.1875 10.9375 C4.47270508 12.01161133 4.47270508 12.01161133 4.76367188 13.10742188 C5.6919477 16.80339833 6.1215946 19.36551019 5 23 C3.18757677 18.9811485 1.66498383 15.38889325 1 11 C0.01 11.495 0.01 11.495 -1 12 C-1 10.02 -1 8.04 -1 6 C-0.34 6 0.32 6 1 6 C0.67 4.02 0.34 2.04 0 0 Z " fill="#F0851C" transform="translate(257,500)"/>
<path d="M0 0 C-2.31 0.33 -4.62 0.66 -7 1 C-7 1.66 -7 2.32 -7 3 C-10.96 3 -14.92 3 -19 3 C-19 3.66 -19 4.32 -19 5 C-17.68 5.33 -16.36 5.66 -15 6 C-17.97 5.67 -20.94 5.34 -24 5 C-20.45973425 1.71787863 -16.60887096 1.04319337 -12 0.25 C-11.2884375 0.11207031 -10.576875 -0.02585937 -9.84375 -0.16796875 C-6.31997719 -0.80566644 -3.40057126 -1.31063684 0 0 Z " fill="#ED881E" transform="translate(196,410)"/>
<path d="M0 0 C0 3.93656323 -1.27404693 4.69143789 -3.9375 7.5 C-7.12975923 10.84072686 -7.12975923 10.84072686 -9 15 C-10.64639965 16.35827971 -12.31295807 17.69254251 -14 19 C-14.33 19.66 -14.66 20.32 -15 21 C-15.66 20.67 -16.32 20.34 -17 20 C-11.69486735 12.90158308 -6.49551669 6.07189603 0 0 Z " fill="#F38B18" transform="translate(613,720)"/>
<path d="M0 0 C-0.66 3.63 -1.32 7.26 -2 11 C-2.33 11 -2.66 11 -3 11 C-2.67 8.03 -2.34 5.06 -2 2 C-9.26 2 -16.52 2 -24 2 C-24 1.67 -24 1.34 -24 1 C-21.50018262 0.8301095 -19.00020399 0.66402047 -16.5 0.5 C-15.80390625 0.45230469 -15.1078125 0.40460937 -14.390625 0.35546875 C-9.58304475 0.04386633 -4.81771254 -0.04340282 0 0 Z " fill="#2F1204" transform="translate(408,615)"/>
<path d="M0 0 C0.33 0 0.66 0 1 0 C1.125 6.75 1.125 6.75 0 9 C-0.0396713 10.66619446 -0.04384447 12.33391013 0 14 C-0.33 12.68 -0.66 11.36 -1 10 C-1.66 10 -2.32 10 -3 10 C-2.34 12.31 -1.68 14.62 -1 17 C-1.66 17.33 -2.32 17.66 -3 18 C-5 15 -5 15 -4.8125 12.3125 C-2.375 2.375 -2.375 2.375 0 0 Z " fill="#0A131D" transform="translate(832,564)"/>
<path d="M0 0 C-1.2491742 3.45925163 -2.67527795 6.14693203 -5 9 C-5 8.01 -5 7.02 -5 6 C-8.3 6 -11.6 6 -15 6 C-12.29954818 4.19969878 -9.93322119 3.06622934 -6.9375 1.875 C-6.05964844 1.52179687 -5.18179688 1.16859375 -4.27734375 0.8046875 C-2 0 -2 0 0 0 Z " fill="#E6821E" transform="translate(574,746)"/>
<path d="M0 0 C0 0.33 0 0.66 0 1 C-1.98 1 -3.96 1 -6 1 C-6 1.66 -6 2.32 -6 3 C-4.700625 2.87625 -3.40125 2.7525 -2.0625 2.625 C-1.33160156 2.55539062 -0.60070312 2.48578125 0.15234375 2.4140625 C1.06693359 2.20910156 1.06693359 2.20910156 2 2 C2.33 1.34 2.66 0.68 3 0 C3.66 0 4.32 0 5 0 C4.125 3.875 4.125 3.875 3 5 C-2.67776737 5.38493338 -5.99592499 5.00244501 -11 2 C-7.36576791 -0.32590854 -4.22911669 -0.16265833 0 0 Z " fill="#09131F" transform="translate(318,336)"/>
<path d="M0 0 C1.90846005 5.72538016 -1.36938348 12.256738 -3.26953125 17.8125 C-4.28347405 20.84890624 -5.14669485 23.91497367 -6 27 C-6.33 27 -6.66 27 -7 27 C-6.51673668 17.97908475 -4.06032114 8.12064227 0 0 Z " fill="#E8861F" transform="translate(488,195)"/>
<path d="M0 0 C5.61 0 11.22 0 17 0 C16.67 0.66 16.34 1.32 16 2 C11.38 2 6.76 2 2 2 C1.67 3.65 1.34 5.3 1 7 C0.67 7 0.34 7 0 7 C0 4.69 0 2.38 0 0 Z " fill="#191006" transform="translate(621,619)"/>
<path d="M0 0 C2.3125 0.8125 2.3125 0.8125 5 3 C6.35625328 6.59195204 7.21598324 10.24564331 8 14 C5.48916886 12.74458443 5.12874554 11.49936512 4 9 C3.34 9.66 2.68 10.32 2 11 C0.57741188 7.17679443 -0.24042276 4.08718695 0 0 Z " fill="#EE7B11" transform="translate(544,521)"/>
<path d="M0 0 C1.98 0 3.96 0 6 0 C6 0.66 6 1.32 6 2 C5.05125 2.28875 4.1025 2.5775 3.125 2.875 C-0.05211578 3.76825109 -0.05211578 3.76825109 -2 6 C-4.8203125 5.9765625 -4.8203125 5.9765625 -8.125 5.625 C-9.22070312 5.51414062 -10.31640625 5.40328125 -11.4453125 5.2890625 C-12.70988281 5.14597656 -12.70988281 5.14597656 -14 5 C-14 4.67 -14 4.34 -14 4 C-12.4176994 3.66179834 -10.83410625 3.32964061 -9.25 3 C-8.36828125 2.814375 -7.4865625 2.62875 -6.578125 2.4375 C-4 2 -4 2 0 2 C0 1.34 0 0.68 0 0 Z " fill="#09121E" transform="translate(552,731)"/>
<path d="M0 0 C1.65 0 3.3 0 5 0 C5.33 0.66 5.66 1.32 6 2 C5.34 2.66 4.68 3.32 4 4 C4 3.34 4 2.68 4 2 C3.34 2 2.68 2 2 2 C2.144375 2.54527344 2.28875 3.09054687 2.4375 3.65234375 C3.81528597 9.24959924 4.18287437 14.23945745 4 20 C3.67 20 3.34 20 3 20 C2.49685437 17.22970414 1.99736162 14.4588348 1.5 11.6875 C1.35691406 10.90181641 1.21382812 10.11613281 1.06640625 9.30664062 C0.93105469 8.54931641 0.79570313 7.79199219 0.65625 7.01171875 C0.53056641 6.31522217 0.40488281 5.61872559 0.27539062 4.90112305 C0 3 0 3 0 0 Z " fill="#ED861B" transform="translate(514,635)"/>
<path d="M0 0 C3.10742423 1.46818668 5.90471739 3.20025 8.75 5.125 C9.94882812 5.93324219 9.94882812 5.93324219 11.171875 6.7578125 C11.77515625 7.16773438 12.3784375 7.57765625 13 8 C12.67 8.99 12.34 9.98 12 11 C8.52676774 10.42112796 6.50554763 9.62282558 4.265625 6.86328125 C2.77861101 4.6079767 1.35566567 2.33635999 0 0 Z " fill="#1B0D0E" transform="translate(554,279)"/>
<path d="M0 0 C0.33 0.66 0.66 1.32 1 2 C-0.125 5 -0.125 5 -2 8 C-3.6476038 8.71247732 -5.31763529 9.37400383 -7 10 C-9.15647089 11.88182602 -11.04107917 13.90441027 -13 16 C-13.66 15.67 -14.32 15.34 -15 15 C-10.05 10.05 -5.1 5.1 0 0 Z " fill="#E88317" transform="translate(786,679)"/>
<path d="M0 0 C0 3.75856468 -0.77135387 4.98054395 -3 8 C-8.76294278 13 -8.76294278 13 -13 13 C-13 12.34 -13 11.68 -13 11 C-11.42578125 9.66796875 -11.42578125 9.66796875 -9.3125 8.1875 C-5.85714975 5.6895825 -2.91826739 3.1006591 0 0 Z " fill="#F18515" transform="translate(552,616)"/>
<path d="M0 0 C0.33 0 0.66 0 1 0 C0.50877547 8.13105861 -0.35266241 16.01920915 -2 24 C-2.33 24 -2.66 24 -3 24 C-3.33328851 15.43325085 -3.11584616 8.04926924 0 0 Z " fill="#0B1420" transform="translate(840,537)"/>
<path d="M0 0 C1.875 0.5625 1.875 0.5625 4 2 C6.93528023 8.4576165 6.61359586 16.04290573 6 23 C5.34 23.66 4.68 24.32 4 25 C4.05220703 23.62328125 4.05220703 23.62328125 4.10546875 22.21875 C4.2647174 14.99947767 4.08824727 9.5470842 1 3 C0.67 2.01 0.34 1.02 0 0 Z " fill="#ED8D22" transform="translate(557,578)"/>
<path d="M0 0 C7.42857143 1 7.42857143 1 11 2 C11 2.66 11 3.32 11 4 C7.17010894 5.80230168 4.21878192 6.19622241 0 6 C0 5.34 0 4.68 0 4 C1.65 4 3.3 4 5 4 C5 3.34 5 2.68 5 2 C3.35 2 1.7 2 0 2 C0 1.34 0 0.68 0 0 Z " fill="#0C121C" transform="translate(536,569)"/>
<path d="M0 0 C3.11547441 0.67883043 5.85137721 1.74106902 8.75 3.0625 C9.54921875 3.42472656 10.3484375 3.78695313 11.171875 4.16015625 C11.77515625 4.43730469 12.3784375 4.71445312 13 5 C9.28125 7.046875 9.28125 7.046875 6.75 6.625 C6.1725 6.41875 5.595 6.2125 5 6 C5.99 6 6.98 6 8 6 C8 5.34 8 4.68 8 4 C7.401875 4.33 6.80375 4.66 6.1875 5 C4 6 4 6 1 6 C1 5.34 1 4.68 1 4 C1.66 4 2.32 4 3 4 C3 3.34 3 2.68 3 2 C2.01 2 1.02 2 0 2 C0 1.34 0 0.68 0 0 Z " fill="#0B121C" transform="translate(341,297)"/>
<path d="M0 0 C0.66 0 1.32 0 2 0 C1.14590173 4.50419983 -1.47747469 7.03017333 -4.5625 10.25 C-5.08263672 10.80429687 -5.60277344 11.35859375 -6.13867188 11.9296875 C-7.41930985 13.29256828 -8.7088049 14.64711683 -10 16 C-10 12.89448334 -9.4606285 11.64738916 -8 9 C-7.01 9 -6.02 9 -5 9 C-5 8.01 -5 7.02 -5 6 C-3.68212715 4.97971135 -2.34789347 3.98028616 -1 3 C-0.67 2.01 -0.34 1.02 0 0 Z " fill="#10090A" transform="translate(588,745)"/>
<path d="M0 0 C2 3 2 3 2 5 C1.01 5 0.02 5 -1 5 C-1.20625 5.53625 -1.4125 6.0725 -1.625 6.625 C-3.57996944 10.0017654 -6.18223695 12.30474839 -9 15 C-9.66 14.67 -10.32 14.34 -11 14 C-10.54109375 13.49210937 -10.0821875 12.98421875 -9.609375 12.4609375 C-6.05320338 8.47145085 -2.83291718 4.53266749 0 0 Z " fill="#F08515" transform="translate(830,448)"/>
<path d="M0 0 C-0.33 0.66 -0.66 1.32 -1 2 C-3.25 2.37890625 -3.25 2.37890625 -6 2.5625 C-9.30759619 2.53480538 -9.30759619 2.53480538 -12 4 C-14.33297433 4.04092937 -16.66705225 4.04241723 -19 4 C-19.33 3.34 -19.66 2.68 -20 2 C-13.25846717 0.74158054 -6.86515862 -0.26404456 0 0 Z " fill="#0B1422" transform="translate(275,427)"/>
<path d="M0 0 C0.33 0.99 0.66 1.98 1 3 C-0.14453125 4.97265625 -0.14453125 4.97265625 -1.8125 7.0625 C-2.35519531 7.75472656 -2.89789063 8.44695312 -3.45703125 9.16015625 C-5.19025839 11.22686507 -6.57085872 12.78542936 -9 14 C-9.66 13.34 -10.32 12.68 -11 12 C-10.54109375 11.55269531 -10.0821875 11.10539062 -9.609375 10.64453125 C-6.16447701 7.25029352 -2.92744915 3.86423288 0 0 Z " fill="#F48512" transform="translate(338,322)"/>
<path d="M0 0 C0.66 0 1.32 0 2 0 C2.95261487 4.76307437 3.08333357 9.1666528 3 14 C2.34 14 1.68 14 1 14 C0.67 12.35 0.34 10.7 0 9 C-0.66 9 -1.32 9 -2 9 C-1.34 6.03 -0.68 3.06 0 0 Z " fill="#2E1306" transform="translate(722,611)"/>
<path d="M0 0 C1 4 1 4 1 6 C-0.45961229 7.19422823 -1.92136194 8.38603377 -3.3984375 9.55859375 C-5.82633031 11.74369728 -7.31537995 14.21389761 -9 17 C-9.33 16.34 -9.66 15.68 -10 15 C-5.05 7.575 -5.05 7.575 0 0 Z " fill="#EE8819" transform="translate(463,289)"/>
<path d="M0 0 C0.5625 1.9375 0.5625 1.9375 1 4 C0.67 4.33 0.34 4.66 0 5 C-0.23527773 7.34987262 -0.41386417 9.70556039 -0.5625 12.0625 C-0.64628906 13.35285156 -0.73007813 14.64320313 -0.81640625 15.97265625 C-0.87699219 16.97167969 -0.93757812 17.97070312 -1 19 C-3.70308147 14.9453778 -3.54301708 11.76123668 -3 7 C-2.2062105 4.48098014 -1.20764211 2.3649658 0 0 Z " fill="#E2821E" transform="translate(164,422)"/>
<path d="M0 0 C2 1 2 1 4 3 C4.36933645 5.75372909 4.18336678 8.20365661 4 11 C1.03134491 8.45543849 -0.3619751 5.51005335 -2 2 C-1.34 2 -0.68 2 0 2 C0 1.34 0 0.68 0 0 Z " fill="#F27E10" transform="translate(603,321)"/>
<path d="M0 0 C0.33 0 0.66 0 1 0 C1 3.3 1 6.6 1 10 C0.34 10 -0.32 10 -1 10 C-1.66 11.65 -2.32 13.3 -3 15 C-3.66 15 -4.32 15 -5 15 C-4.54705135 13.24859857 -4.08741252 11.49892656 -3.625 9.75 C-3.36976563 8.77546875 -3.11453125 7.8009375 -2.8515625 6.796875 C-2.10401491 4.34162697 -1.22876183 2.24382595 0 0 Z " fill="#261106" transform="translate(880,568)"/>
<path d="M0 0 C0.90105469 0.00902344 1.80210937 0.01804687 2.73046875 0.02734375 C3.41753906 0.03894531 4.10460937 0.05054688 4.8125 0.0625 C4.8125 0.3925 4.8125 0.7225 4.8125 1.0625 C2.1725 1.3925 -0.4675 1.7225 -3.1875 2.0625 C-0.5475 2.3925 2.0925 2.7225 4.8125 3.0625 C4.8125 3.3925 4.8125 3.7225 4.8125 4.0625 C-4.59752278 5.57958428 -4.59752278 5.57958428 -9.1875 3.0625 C-7.31499103 -0.68251794 -3.72136574 -0.04832943 0 0 Z " fill="#1F130E" transform="translate(403.1875,418.9375)"/>
<path d="M0 0 C0.96070434 2.88211302 1.10581883 4.69850044 1.0625 7.6875 C1.05347656 8.49574219 1.04445313 9.30398438 1.03515625 10.13671875 C1.02355469 10.75160156 1.01195312 11.36648438 1 12 C0.34 11.67 -0.32 11.34 -1 11 C-1.66 12.65 -2.32 14.3 -3 16 C-4.49828872 12.11764181 -3.43110582 9.56550712 -2.0625 5.75 C-1.68222656 4.67234375 -1.30195313 3.5946875 -0.91015625 2.484375 C-0.45962891 1.25460937 -0.45962891 1.25460937 0 0 Z " fill="#EC841C" transform="translate(431,348)"/>
<path d="M0 0 C0.33 0.66 0.66 1.32 1 2 C0.01 2.495 0.01 2.495 -1 3 C-1.40729228 5.32156597 -1.74438677 7.6568787 -2 10 C-4.97 9.505 -4.97 9.505 -8 9 C-7.23997083 7.68121422 -6.46656347 6.3701316 -5.6875 5.0625 C-5.25824219 4.33160156 -4.82898438 3.60070312 -4.38671875 2.84765625 C-3 1 -3 1 0 0 Z " fill="#0C121B" transform="translate(735,711)"/>
<path d="M0 0 C4.81033104 2.54664585 8.32442148 4.99027798 12 9 C10.02 9 8.04 9 6 9 C6 8.34 6 7.68 6 7 C5.01 6.67 4.02 6.34 3 6 C2.67 5.01 2.34 4.02 2 3 C1.34 2.67 0.68 2.34 0 2 C0 1.34 0 0.68 0 0 Z " fill="#F18415" transform="translate(262,703)"/>
<path d="M0 0 C1.37344385 4.39844322 0.24307502 7.92504555 -0.9375 12.25 C-1.23043945 13.36761719 -1.23043945 13.36761719 -1.52929688 14.5078125 C-2.01104198 16.34079386 -2.50439225 18.17071818 -3 20 C-3.33 20 -3.66 20 -4 20 C-4 15.71 -4 11.42 -4 7 C-3.34 6.67 -2.68 6.34 -2 6 C-1.27306096 4.02111039 -0.60183749 2.02045442 0 0 Z " fill="#ED8923" transform="translate(852,466)"/>
<path d="M0 0 C0 0.66 0 1.32 0 2 C0.66 2 1.32 2 2 2 C2 2.66 2 3.32 2 4 C0.35 4.66 -1.3 5.32 -3 6 C-3 5.34 -3 4.68 -3 4 C-4.98 4.66 -6.96 5.32 -9 6 C-3.2 0 -3.2 0 0 0 Z " fill="#1A0F0A" transform="translate(738,759)"/>
<path d="M0 0 C0.625 1.875 0.625 1.875 1 4 C-0.26045971 5.26045971 -1.5301243 6.51184415 -2.8125 7.75 C-5.37457445 10.38527658 -7.67278777 13.1556295 -10 16 C-10 11.7349984 -7.55526586 9.49967621 -5 6.3125 C-4.52304687 5.70599609 -4.04609375 5.09949219 -3.5546875 4.47460938 C-2.37623606 2.97797604 -1.18894812 1.48830827 0 0 Z " fill="#180906" transform="translate(782,652)"/>
<path d="M0 0 C0 0.66 0 1.32 0 2 C-0.66 2 -1.32 2 -2 2 C-2.66 3.65 -3.32 5.3 -4 7 C-4.99 7 -5.98 7 -7 7 C-7.33 5.68 -7.66 4.36 -8 3 C-4.93882432 0.37613513 -4.26826873 0 0 0 Z " fill="#100F15" transform="translate(464,285)"/>
<path d="M0 0 C0.66 0.33 1.32 0.66 2 1 C1.67 2.65 1.34 4.3 1 6 C1.99 6.33 2.98 6.66 4 7 C3.67 8.65 3.34 10.3 3 12 C0.59927045 9.11912454 -1.47291037 6.43595166 -3 3 C-2.34 3 -1.68 3 -1 3 C-0.67 2.01 -0.34 1.02 0 0 Z " fill="#F48112" transform="translate(316,257)"/>
<path d="M0 0 C7.75 0.75 7.75 0.75 10 3 C5.9472484 3.98248524 2.16138263 4.08159574 -2 4 C-1.34 2.68 -0.68 1.36 0 0 Z " fill="#F78213" transform="translate(592,252)"/>
<path d="M0 0 C0.33 0 0.66 0 1 0 C1 1.98 1 3.96 1 6 C1.66 6 2.32 6 3 6 C3.33 5.01 3.66 4.02 4 3 C4 5.97 4 8.94 4 12 C2.68 11.34 1.36 10.68 0 10 C0 6.7 0 3.4 0 0 Z " fill="#FB7E0B" transform="translate(768,235)"/>
<path d="M0 0 C1.98 0 3.96 0 6 0 C6 1.32 6 2.64 6 4 C8.41666771 6.75041666 8.41666771 6.75041666 11 9 C8.03469503 7.64199529 5.70868729 6.07571737 3.25 3.9375 C2.63640625 3.41027344 2.0228125 2.88304687 1.390625 2.33984375 C0.93171875 1.89769531 0.4728125 1.45554687 0 1 C0 0.67 0 0.34 0 0 Z " fill="#EE8118" transform="translate(425,704)"/>
<path d="M0 0 C0 3 0 3 -2.5 5.6875 C-3.325 6.450625 -4.15 7.21375 -5 8 C-7.475 7.01 -7.475 7.01 -10 6 C-7.99006295 3.99006295 -6.40788768 3.10059081 -3.875 1.875 C-3.15054688 1.52179687 -2.42609375 1.16859375 -1.6796875 0.8046875 C-1.12539063 0.53914062 -0.57109375 0.27359375 0 0 Z " fill="#2D1407" transform="translate(597,661)"/>
<path d="M0 0 C2.33936818 2.12669835 3.80653848 4.06224856 5 7 C5 7.99 5 8.98 5 10 C4.01 9.67 3.02 9.34 2 9 C2.33 8.34 2.66 7.68 3 7 C2.34 7 1.68 7 1 7 C0.67 7.99 0.34 8.98 0 10 C-0.33 10 -0.66 10 -1 10 C-1 8.35 -1 6.7 -1 5 C-0.34 5 0.32 5 1 5 C0.67 3.35 0.34 1.7 0 0 Z " fill="#0C151E" transform="translate(208,603)"/>
<path d="M0 0 C0.66 0.33 1.32 0.66 2 1 C-4.40871041 5.37504865 -9.19198969 7.7481287 -17 8 C-13.78379515 5.85586343 -10.46863154 4.33918454 -6.9375 2.8125 C-6.30005859 2.52697266 -5.66261719 2.24144531 -5.00585938 1.94726562 C-3.36290102 1.23572097 -1.68293027 0.61102673 0 0 Z " fill="#EC8B21" transform="translate(720,583)"/>
<path d="M0 0 C0.33 1.32 0.66 2.64 1 4 C-6.26 3.67 -13.52 3.34 -21 3 C-19 1 -19 1 -17.13647461 0.78881836 C-16.39921143 0.80565674 -15.66194824 0.82249512 -14.90234375 0.83984375 C-13.70061523 0.8562793 -13.70061523 0.8562793 -12.47460938 0.87304688 C-11.63736328 0.89431641 -10.80011719 0.91558594 -9.9375 0.9375 C-6.95429282 0.99922153 -3.98474033 1.02058442 -1 1 C-0.67 0.67 -0.34 0.34 0 0 Z " fill="#081626" transform="translate(418,390)"/>
<path d="M0 0 C2 1 2 1 5 3 C5.433125 2.505 5.86625 2.01 6.3125 1.5 C8 0 8 0 11 0 C11 0.66 11 1.32 11 2 C9.03852126 3.38938077 7.03833424 4.7260411 5 6 C1.535 4.02 1.535 4.02 -2 2 C-1.34 1.34 -0.68 0.68 0 0 Z " fill="#1A0D08" transform="translate(663,303)"/>
<path d="M0 0 C0.66 0 1.32 0 2 0 C2.66 0.66 3.32 1.32 4 2 C3.625 4.125 3.625 4.125 3 6 C2.67 6 2.34 6 2 6 C1.67 7.98 1.34 9.96 1 12 C0.34 12 -0.32 12 -1 12 C-0.67 8.04 -0.34 4.08 0 0 Z " fill="#F08213" transform="translate(724,645)"/>
<path d="M0 0 C2 1 2 1 3.1875 4.3125 C3.90649268 7.57562063 4.20286847 8.99282882 3 12 C2.67 9.69 2.34 7.38 2 5 C1.34 5 0.68 5 0 5 C-0.33 5.99 -0.66 6.98 -1 8 C-1.66 6.35 -2.32 4.7 -3 3 C-2.01 2.67 -1.02 2.34 0 2 C0 1.34 0 0.68 0 0 Z " fill="#ED8116" transform="translate(595,356)"/>
<path d="M0 0 C1.57159226 3.14318453 0.04018399 5.92933389 -0.9375 9.125 C-1.13279297 9.78371094 -1.32808594 10.44242188 -1.52929688 11.12109375 C-2.01304986 12.74933552 -2.50569075 14.37493182 -3 16 C-4.4606285 13.35261084 -5 12.10551666 -5 9 C-4.34 8.34 -3.68 7.68 -3 7 C-1.96157435 4.68351201 -0.9578025 2.35096976 0 0 Z " fill="#EE851B" transform="translate(542,202)"/>
<path d="M0 0 C1.24523437 0.01804688 2.49046875 0.03609375 3.7734375 0.0546875 C5.18496094 0.08949219 5.18496094 0.08949219 6.625 0.125 C6.625 0.455 6.625 0.785 6.625 1.125 C5.63757813 1.25777344 4.65015625 1.39054688 3.6328125 1.52734375 C2.35148438 1.70394531 1.07015625 1.88054687 -0.25 2.0625 C-2.16425781 2.32353516 -2.16425781 2.32353516 -4.1171875 2.58984375 C-7.25059454 2.93933227 -7.25059454 2.93933227 -9.375 4.125 C-11.5 3.1875 -11.5 3.1875 -13.375 2.125 C-8.75130977 0.31820413 -4.94971347 -0.09339082 0 0 Z " fill="#E68D2B" transform="translate(723.375,188.875)"/>
<path d="M0 0 C1.42944945 2.35438733 2.08661261 3.48032433 1.625 6.25 C1.41875 6.8275 1.2125 7.405 1 8 C0.67 7.34 0.34 6.68 0 6 C-1.32 8.31 -2.64 10.62 -4 13 C-4.33 12.34 -4.66 11.68 -5 11 C-4.2578125 8.90625 -4.2578125 8.90625 -3.125 6.5 C-2.75632812 5.7059375 -2.38765625 4.911875 -2.0078125 4.09375 C-1.3486219 2.72426876 -0.67970746 1.35941491 0 0 Z " fill="#0B131C" transform="translate(702,672)"/>
<path d="M0 0 C0.33 0 0.66 0 1 0 C1.09796875 0.72445312 1.1959375 1.44890625 1.296875 2.1953125 C2.21692754 8.14392808 3.18992735 12.3009104 7 17 C6.01 17 5.02 17 4 17 C0.5246131 11.02667877 -0.57374185 6.88490225 0 0 Z " fill="#210E06" transform="translate(517,655)"/>
<path d="M0 0 C0.33 0 0.66 0 1 0 C0.67 4.62 0.34 9.24 0 14 C-0.99 14.33 -1.98 14.66 -3 15 C-2.44854729 9.76119922 -1.57077907 5.02649303 0 0 Z " fill="#231109" transform="translate(853,466)"/>
<path d="M0 0 C0 3.90838866 -1.50567876 5.11594107 -4 8 C-4.33 7.01 -4.66 6.02 -5 5 C-6.98 5.33 -8.96 5.66 -11 6 C-8.84733158 3.84733158 -7.15226256 3.06525538 -4.375 1.875 C-3.55773437 1.52179688 -2.74046875 1.16859375 -1.8984375 0.8046875 C-1.27195312 0.53914063 -0.64546875 0.27359375 0 0 Z " fill="#220D05" transform="translate(830,446)"/>
<path d="M0 0 C1.06546953 3.1964086 1.07427838 5.65747276 1 9 C0.67 8.34 0.34 7.68 0 7 C-0.66 7 -1.32 7 -2 7 C-2.28875 8.134375 -2.5775 9.26875 -2.875 10.4375 C-3.24625 11.613125 -3.6175 12.78875 -4 14 C-4.99 14.495 -4.99 14.495 -6 15 C-4.36041242 9.76727367 -2.61047965 4.84803364 0 0 Z " fill="#E58520" transform="translate(495,179)"/>
<path d="M0 0 C0 3 0 3 -2.1875 5.26171875 C-3.115625 6.06222656 -4.04375 6.86273437 -5 7.6875 C-5.928125 8.49574219 -6.85625 9.30398438 -7.8125 10.13671875 C-8.8953125 11.05904297 -8.8953125 11.05904297 -10 12 C-10.66 11.67 -11.32 11.34 -12 11 C-8.04 7.37 -4.08 3.74 0 0 Z " fill="#F38A18" transform="translate(664,751)"/>
<path d="M0 0 C2 1.3125 2 1.3125 4 4 C4.36089448 7.68855385 4.22933459 11.3051649 4 15 C1.4502185 10.11470435 0 5.54842611 0 0 Z " fill="#EF881F" transform="translate(171,467)"/>
<path d="M0 0 C0.33 0 0.66 0 1 0 C0.7589852 7.10993658 0.7589852 7.10993658 -1.40234375 9.64453125 C-3.0625 11 -3.0625 11 -6 13 C-6.66 12.67 -7.32 12.34 -8 12 C-7.50628906 11.46890625 -7.01257813 10.9378125 -6.50390625 10.390625 C-5.86324219 9.68421875 -5.22257813 8.9778125 -4.5625 8.25 C-3.92441406 7.55390625 -3.28632813 6.8578125 -2.62890625 6.140625 C-1.00918675 4.01207275 -0.41732744 2.60976595 0 0 Z " fill="#E88218" transform="translate(253,377)"/>
<path d="M0 0 C-2.14478916 1.00229368 -4.29074722 2.00192855 -6.4375 3 C-7.63246094 3.556875 -8.82742188 4.11375 -10.05859375 4.6875 C-13 6 -13 6 -14 6 C-14 4.35 -14 2.7 -14 1 C-13.484375 1.226875 -12.96875 1.45375 -12.4375 1.6875 C-7.45774007 2.32593076 -4.96787184 -1.65595728 0 0 Z " fill="#EA841C" transform="translate(416,258)"/>
<path d="M0 0 C0.33 0.66 0.66 1.32 1 2 C1.66 2 2.32 2 3 2 C1.49776416 6.20626034 -1.28550034 7.73900021 -5 10 C-3.33333333 6.66666667 -1.66666667 3.33333333 0 0 Z " fill="#2C1008" transform="translate(559,772)"/>
<path d="M0 0 C0.66 0.33 1.32 0.66 2 1 C-1.08632611 4.2626876 -3.93483504 7.02235218 -8 9 C-8.66 8.67 -9.32 8.34 -10 8 C-6.7 5.36 -3.4 2.72 0 0 Z " fill="#F38714" transform="translate(650,763)"/>
<path d="M0 0 C0.66 0.33 1.32 0.66 2 1 C2 1.66 2 2.32 2 3 C4.31 3 6.62 3 9 3 C5.78817851 4.90608098 3.46117397 5.22266247 -0.25 5.125 C-1.14203125 5.10695313 -2.0340625 5.08890625 -2.953125 5.0703125 C-3.96632813 5.03550781 -3.96632813 5.03550781 -5 5 C-4.360625 4.731875 -3.72125 4.46375 -3.0625 4.1875 C-0.66868314 3.11332248 -0.66868314 3.11332248 0 0 Z " fill="#110909" transform="translate(535,752)"/>
<path d="M0 0 C0.33 0.66 0.66 1.32 1 2 C1.99 2.33 2.98 2.66 4 3 C2.54735962 3.8638129 1.0876837 4.71580454 -0.375 5.5625 C-1.59316406 6.27599609 -1.59316406 6.27599609 -2.8359375 7.00390625 C-3.55007813 7.33261719 -4.26421875 7.66132812 -5 8 C-5.66 7.67 -6.32 7.34 -7 7 C-4.69 4.69 -2.38 2.38 0 0 Z " fill="#1E0804" transform="translate(719,725)"/>
<path d="M0 0 C0.33 0 0.66 0 1 0 C0.98839844 0.62648438 0.97679687 1.25296875 0.96484375 1.8984375 C0.95582031 2.71570313 0.94679688 3.53296875 0.9375 4.375 C0.92589844 5.18710937 0.91429687 5.99921875 0.90234375 6.8359375 C0.85533666 9.04937142 0.85533666 9.04937142 2 11 C1.67 11.66 1.34 12.32 1 13 C0.01 13 -0.98 13 -2 13 C-1.85769192 11.58297487 -1.71099254 10.1663904 -1.5625 8.75 C-1.48128906 7.96109375 -1.40007813 7.1721875 -1.31640625 6.359375 C-1.02365007 4.17635361 -0.57935581 2.1226818 0 0 Z " fill="#21110A" transform="translate(883,554)"/>
<path d="M0 0 C0.33 0.66 0.66 1.32 1 2 C1.66 2 2.32 2 3 2 C2.64950425 5.24208567 2.43778819 6.61527704 -0.0625 8.8125 C-0.701875 9.204375 -1.34125 9.59625 -2 10 C-2.33 9.01 -2.66 8.02 -3 7 C-2.01 6.67 -1.02 6.34 0 6 C0 4.02 0 2.04 0 0 Z " fill="#1F1613" transform="translate(816,458)"/>
<path d="M0 0 C0.33 0 0.66 0 1 0 C1.03738281 0.61488281 1.07476563 1.22976563 1.11328125 1.86328125 C1.17902344 2.67152344 1.24476563 3.47976563 1.3125 4.3125 C1.37050781 5.11300781 1.42851563 5.91351563 1.48828125 6.73828125 C2.08206694 9.36272334 2.95780294 10.30820672 5 12 C4.34 12.66 3.68 13.32 3 14 C0.9375 12.0625 0.9375 12.0625 -1 9 C-1.05666696 5.91937821 -0.60438257 3.01534349 0 0 Z " fill="#281409" transform="translate(772,373)"/>
<path d="M0 0 C0.66 0.33 1.32 0.66 2 1 C1.67 1.99 1.34 2.98 1 4 C0.01 4 -0.98 4 -2 4 C-2.2475 4.639375 -2.495 5.27875 -2.75 5.9375 C-4 8 -4 8 -6.078125 8.62890625 C-7.02945312 8.81259766 -7.02945312 8.81259766 -8 9 C-7.04270084 7.87411986 -6.08412105 6.7493285 -5.125 5.625 C-4.59132813 4.99851563 -4.05765625 4.37203125 -3.5078125 3.7265625 C-2.38567993 2.44163349 -1.20628025 1.20628025 0 0 Z " fill="#F78918" transform="translate(509,163)"/>
<path d="M0 0 C0.66 0.33 1.32 0.66 2 1 C-1.06327268 5.67552146 -5.12138604 7.57623 -10 10 C-3.84965831 2.51708428 -3.84965831 2.51708428 0 0 Z " fill="#EF8A1A" transform="translate(569,769)"/>
<path d="M0 0 C0.66 0.33 1.32 0.66 2 1 C-2.46153846 7.92307692 -2.46153846 7.92307692 -5 10 C-5.66 10 -6.32 10 -7 10 C-7 8.68 -7 7.36 -7 6 C-6.401875 5.938125 -5.80375 5.87625 -5.1875 5.8125 C-2.12856542 4.6763243 -1.44958901 2.82669858 0 0 Z " fill="#070914" transform="translate(674,737)"/>
<path d="M0 0 C3.8063457 0.67170806 7.35206816 1.72746564 11 3 C8.42786866 4.61949011 7.32330841 5.04408751 4.25 4.625 C3.5075 4.41875 2.765 4.2125 2 4 C2 3.34 2 2.68 2 2 C1.34 1.34 0.68 0.68 0 0 Z " fill="#F5891B" transform="translate(309,587)"/>
<path d="M0 0 C0.66 0.33 1.32 0.66 2 1 C0.7934375 1.4021875 0.7934375 1.4021875 -0.4375 1.8125 C-1.283125 2.204375 -2.12875 2.59625 -3 3 C-3.33 3.99 -3.66 4.98 -4 6 C-6.31 6 -8.62 6 -11 6 C-7.57874946 3.12614955 -4.16111563 1.54115394 0 0 Z " fill="#F0871D" transform="translate(435,583)"/>
<path d="M0 0 C0 3 0 3 -1 5 C-0.34 5.33 0.32 5.66 1 6 C-0.96466413 7.06775224 -2.96855359 8.06553465 -5 9 C-5.66 8.67 -6.32 8.34 -7 8 C-4.69 5.36 -2.38 2.72 0 0 Z " fill="#170C08" transform="translate(436,307)"/>
<path d="M0 0 C0 4.31618166 -2.13270348 5.92789659 -5 9 C-5.66 9 -6.32 9 -7 9 C-7 9.66 -7 10.32 -7 11 C-8.32 10.67 -9.64 10.34 -11 10 C-10.01 10 -9.02 10 -8 10 C-7.79375 9.46375 -7.5875 8.9275 -7.375 8.375 C-5.42003056 4.9982346 -2.81776305 2.69525161 0 0 Z " fill="#EA861B" transform="translate(628,251)"/>
<path d="M0 0 C0.66 0.33 1.32 0.66 2 1 C2 1.66 2 2.32 2 3 C0.03125 4.5078125 0.03125 4.5078125 -2.5 6.125 C-3.3353125 6.66382813 -4.170625 7.20265625 -5.03125 7.7578125 C-5.6809375 8.16773438 -6.330625 8.57765625 -7 9 C-5.27845212 5.23511958 -3.00765886 2.84936103 0 0 Z " fill="#321404" transform="translate(646,763)"/>
<path d="M0 0 C0.99 0 1.98 0 3 0 C3.66 2.64 4.32 5.28 5 8 C3.02 6.35 1.04 4.7 -1 3 C-0.67 2.01 -0.34 1.02 0 0 Z " fill="#EF7F10" transform="translate(218,696)"/>
<path d="M0 0 C0.66 0 1.32 0 2 0 C1.814375 1.03125 1.62875 2.0625 1.4375 3.125 C1.02692918 6.76148442 1.221691 9.45437009 2 13 C-0.2551922 10.7448078 -0.97723468 8.9952413 -2 6 C-2 5.01 -2 4.02 -2 3 C-1.34 3 -0.68 3 0 3 C0 2.01 0 1.02 0 0 Z " fill="#EB821A" transform="translate(317,648)"/>
<path d="M0 0 C2 3 2 3 1.625 6.1875 C1.41875 7.115625 1.2125 8.04375 1 9 C-1 7.1875 -1 7.1875 -3 5 C-3 4.01 -3 3.02 -3 2 C-2.01 2 -1.02 2 0 2 C0 1.34 0 0.68 0 0 Z " fill="#1F1611" transform="translate(190,557)"/>
<path d="M0 0 C2.42130331 2.42130331 2.52840504 3.80111377 3.125 7.125 C3.29257813 8.03507812 3.46015625 8.94515625 3.6328125 9.8828125 C3.81457031 10.93082031 3.81457031 10.93082031 4 12 C3.34 11.67 2.68 11.34 2 11 C2 9.68 2 8.36 2 7 C1.01 7 0.02 7 -1 7 C-0.67 4.69 -0.34 2.38 0 0 Z " fill="#0C141E" transform="translate(165,457)"/>
<path d="M0 0 C1.32 0.66 2.64 1.32 4 2 C2.02 4.31 0.04 6.62 -2 9 C-2 5.61976483 -1.12544378 3.16531063 0 0 Z " fill="#070A11" transform="translate(337,317)"/>
<path d="M0 0 C4.75 -0.125 4.75 -0.125 7 1 C6.67 1.99 6.34 2.98 6 4 C6.66 4.66 7.32 5.32 8 6 C5 6 5 6 3.61328125 4.6875 C2.40885417 3.125 1.20442708 1.5625 0 0 Z " fill="#EB7F13" transform="translate(239,720)"/>
<path d="M0 0 C6.4 0.49230769 6.4 0.49230769 9.4375 3.0625 C10.2109375 4.0215625 10.2109375 4.0215625 11 5 C10.67 5.66 10.34 6.32 10 7 C8.33073546 6.02526874 6.66464358 5.04510211 5 4.0625 C4.071875 3.51722656 3.14375 2.97195313 2.1875 2.41015625 C1.465625 1.94480469 0.74375 1.47945312 0 1 C0 0.67 0 0.34 0 0 Z " fill="#210F09" transform="translate(282,716)"/>
<path d="M0 0 C0 1.98 0 3.96 0 6 C0.99 6 1.98 6 3 6 C3 6.66 3 7.32 3 8 C1.25 7.875 1.25 7.875 -1 7 C-3.25 3.9375 -3.25 3.9375 -5 1 C-2 0 -2 0 0 0 Z " fill="#0B0E17" transform="translate(255,689)"/>
<path d="M0 0 C0.66 0 1.32 0 2 0 C2 0.66 2 1.32 2 2 C2.66 2.33 3.32 2.66 4 3 C2.68 4.65 1.36 6.3 0 8 C-0.38063221 5.6739143 -0.71269945 3.33944736 -1 1 C-0.67 0.67 -0.34 0.34 0 0 Z " fill="#F68011" transform="translate(833,656)"/>
<path d="M0 0 C0 0.33 0 0.66 0 1 C-7.42857143 3.42857143 -7.42857143 3.42857143 -11 2 C-7.49890112 -1.50109888 -4.63591413 -1.15897853 0 0 Z " fill="#0B131E" transform="translate(224,400)"/>
<path d="M0 0 C0.598125 0.309375 1.19625 0.61875 1.8125 0.9375 C4.08956772 2.10209704 4.08956772 2.10209704 7 3 C7 3.99 7 4.98 7 6 C7.99 6.33 8.98 6.66 10 7 C9.67 7.66 9.34 8.32 9 9 C7.49704815 7.69088122 5.99770689 6.37761608 4.5 5.0625 C3.6646875 4.33160156 2.829375 3.60070312 1.96875 2.84765625 C1.3190625 2.23792969 0.669375 1.62820313 0 1 C0 0.67 0 0.34 0 0 Z " fill="#1A0B06" transform="translate(454,768)"/>
<path d="M0 0 C2.61500768 2.36595933 4.38999603 4.86049226 6 8 C5.67 8.66 5.34 9.32 5 10 C2 6.25 2 6.25 2 4 C0.68 4.33 -0.64 4.66 -2 5 C-1.34 3.35 -0.68 1.7 0 0 Z " fill="#130808" transform="translate(459,764)"/>
<path d="M0 0 C1 3 1 3 1 7 C-0.65 7.33 -2.3 7.66 -4 8 C-2.68 5.36 -1.36 2.72 0 0 Z M2 2 C2.33 2.99 2.66 3.98 3 5 C2.34 4.67 1.68 4.34 1 4 C1.33 3.34 1.66 2.68 2 2 Z " fill="#211109" transform="translate(679,715)"/>
<path d="M0 0 C1.31602523 0.61754259 2.62773556 1.24428742 3.9375 1.875 C4.66839844 2.22304688 5.39929688 2.57109375 6.15234375 2.9296875 C8 4 8 4 9 6 C7.35 6.33 5.7 6.66 4 7 C3.67 6.01 3.34 5.02 3 4 C2.34 3.67 1.68 3.34 1 3 C0.67 2.01 0.34 1.02 0 0 Z " fill="#F08618" transform="translate(276,713)"/>
<path d="M0 0 C2.3125 0.8125 2.3125 0.8125 4 2 C1.75 3.625 1.75 3.625 -1 5 C-3.3125 4.1875 -3.3125 4.1875 -5 3 C-2.75 1.375 -2.75 1.375 0 0 Z " fill="#0E131A" transform="translate(740,712)"/>
<path d="M0 0 C0 3.64478912 -0.85802506 5.09303401 -3 8 C-5.1875 8.8125 -5.1875 8.8125 -7 9 C-5.44499019 5.18315774 -2.96404505 2.80804268 0 0 Z " fill="#F8820F" transform="translate(700,711)"/>
<path d="M0 0 C0 0.99 0 1.98 0 3 C-1.75 4.60546875 -1.75 4.60546875 -4 6.1875 C-4.7425 6.71730469 -5.485 7.24710938 -6.25 7.79296875 C-6.8275 8.19128906 -7.405 8.58960938 -8 9 C-8.66 8.67 -9.32 8.34 -10 8 C-6.7 5.36 -3.4 2.72 0 0 Z " fill="#F18A1B" transform="translate(734,573)"/>
<path d="M0 0 C0.99 0 1.98 0 3 0 C3.125 5.75 3.125 5.75 2 8 C1.34 8 0.68 8 0 8 C-0.79953138 4.71303767 -1.09658936 3.28976808 0 0 Z " fill="#1E1714" transform="translate(833,555)"/>
<path d="M0 0 C0.66 0 1.32 0 2 0 C4.09350689 3.4019487 4.17942163 6.05272412 4 10 C2 9 2 9 0.875 6.6875 C0 4 0 4 0 0 Z " fill="#0C131C" transform="translate(859,452)"/>
<path d="M0 0 C0.99 0.33 1.98 0.66 3 1 C0.42215154 3.64752004 -1.91648098 5.94432065 -5 8 C-3.8141763 4.62496331 -2.72426311 2.35277269 0 0 Z " fill="#110909" transform="translate(656,751)"/>
<path d="M0 0 C0.66 1.32 1.32 2.64 2 4 C1.34 4.66 0.68 5.32 0 6 C-0.69748583 7.31747324 -1.36959957 8.64914193 -2 10 C-2.66 10 -3.32 10 -4 10 C-3.52449439 8.51965236 -3.04448784 7.04074979 -2.5625 5.5625 C-2.29566406 4.73878906 -2.02882813 3.91507813 -1.75390625 3.06640625 C-1 1 -1 1 0 0 Z " fill="#F18717" transform="translate(636,686)"/>
<path d="M0 0 C0.66 0.33 1.32 0.66 2 1 C2.625 3.0625 2.625 3.0625 3 5 C2.01 5.33 1.02 5.66 0 6 C-0.73323796 8.01508358 -0.73323796 8.01508358 -1 10 C-1.125 2.25 -1.125 2.25 0 0 Z " fill="#DF7D19" transform="translate(404,634)"/>
<path d="M0 0 C0.25 2.25 0.25 2.25 0 5 C-2 7.3125 -2 7.3125 -4 9 C-3.4140625 2.84765625 -3.4140625 2.84765625 -3 1 C-1 0 -1 0 0 0 Z " fill="#0C131C" transform="translate(461,553)"/>
<path d="M0 0 C0.99 0.495 0.99 0.495 2 1 C2 1.99 2 2.98 2 4 C3.32 4.33 4.64 4.66 6 5 C5.34 6.65 4.68 8.3 4 10 C1.7448078 7.7448078 1.02276532 5.9952413 0 3 C0 2.01 0 1.02 0 0 Z " fill="#0B151F" transform="translate(553,532)"/>
<path d="M0 0 C7.75 0.75 7.75 0.75 10 3 C7.03 2.505 7.03 2.505 4 2 C4 2.66 4 3.32 4 4 C3.01 4 2.02 4 1 4 C0.67 2.68 0.34 1.36 0 0 Z " fill="#F58716" transform="translate(160,484)"/>
<path d="M0 0 C3.73487777 0.4979837 5.81237635 0.87491756 9 3 C6 5 6 5 3.3125 4.625 C2.549375 4.41875 1.78625 4.2125 1 4 C1.66 3.67 2.32 3.34 3 3 C3 2.34 3 1.68 3 1 C2.01 0.67 1.02 0.34 0 0 Z " fill="#F68312" transform="translate(205,448)"/>
<path d="M0 0 C4.62 0 9.24 0 14 0 C14 0.33 14 0.66 14 1 C12.02 1 10.04 1 8 1 C8 1.66 8 2.32 8 3 C7.01 3 6.02 3 5 3 C5 2.34 5 1.68 5 1 C3.35 1 1.7 1 0 1 C0 0.67 0 0.34 0 0 Z " fill="#270F05" transform="translate(712,421)"/>
<path d="M0 0 C-2.31 0.33 -4.62 0.66 -7 1 C-7 1.66 -7 2.32 -7 3 C-8.65 3 -10.3 3 -12 3 C-11.67 2.01 -11.34 1.02 -11 0 C-3.57142857 -1.28571429 -3.57142857 -1.28571429 0 0 Z " fill="#F08015" transform="translate(196,410)"/>
<path d="M0 0 C0.99 0.33 1.98 0.66 3 1 C1.68 3.31 0.36 5.62 -1 8 C-1.33 8 -1.66 8 -2 8 C-2 5.69 -2 3.38 -2 1 C-1.34 0.67 -0.68 0.34 0 0 Z " fill="#ED8218" transform="translate(706,262)"/>
<path d="M0 0 C2.31 1.98 4.62 3.96 7 6 C3.30581799 6 1.22163822 4.71820705 -2 3 C-1.34 2.67 -0.68 2.34 0 2 C0 1.34 0 0.68 0 0 Z " fill="#391505" transform="translate(305,726)"/>
<path d="M0 0 C0 0.66 0 1.32 0 2 C-2.31 2 -4.62 2 -7 2 C-7.33 1.34 -7.66 0.68 -8 0 C-5.13822943 -1.43088528 -3.06624227 -0.59991697 0 0 Z " fill="#FB830E" transform="translate(733,420)"/>
<path d="M0 0 C0 0.66 0 1.32 0 2 C-1.98 2.33 -3.96 2.66 -6 3 C-6.33 2.01 -6.66 1.02 -7 0 C-4.3333581 -1.33332095 -2.83319697 -0.67102033 0 0 Z " fill="#0B121A" transform="translate(573,293)"/>
<path d="M0 0 C0.99 0 1.98 0 3 0 C5.09350689 3.4019487 5.17942163 6.05272412 5 10 C4.34 9.67 3.68 9.34 3 9 C2.66666667 7.33333333 2.33333333 5.66666667 2 4 C1.34 3.67 0.68 3.34 0 3 C0 2.01 0 1.02 0 0 Z " fill="#0B141B" transform="translate(550,174)"/>
<path d="M0 0 C2.64752004 2.57784846 4.94432065 4.91648098 7 8 C3.63408134 6.55746343 1.48952921 4.66735273 -1 2 C-0.67 1.34 -0.34 0.68 0 0 Z " fill="#1F0A01" transform="translate(376,762)"/>
<path d="M0 0 C4.875 4.75 4.875 4.75 6 7 C2.56404834 5.47291037 -0.11912454 3.40072955 -3 1 C-2.01 0.67 -1.02 0.34 0 0 Z " fill="#160A0B" transform="translate(366,750)"/>
<path d="M0 0 C1.37562854 1.28965176 2.70766393 2.62689293 4 4 C4 4.66 4 5.32 4 6 C4.99 6.33 5.98 6.66 7 7 C6.01 7.495 6.01 7.495 5 8 C2.375 6.875 2.375 6.875 0 5 C-0.3125 2.3125 -0.3125 2.3125 0 0 Z " fill="#0A141D" transform="translate(294,717)"/>
<path d="M0 0 C0 0.66 0 1.32 0 2 C-6.625 5.125 -6.625 5.125 -10 4 C-8.71086513 3.32845067 -7.41859796 2.66291141 -6.125 2 C-5.40570312 1.62875 -4.68640625 1.2575 -3.9453125 0.875 C-2 0 -2 0 0 0 Z " fill="#E8861D" transform="translate(571,685)"/>
<path d="M0 0 C0.33 0.66 0.66 1.32 1 2 C-1.3125 4.5 -1.3125 4.5 -4 7 C-4.99 7 -5.98 7 -7 7 C-4.69 4.69 -2.38 2.38 0 0 Z " fill="#E47F16" transform="translate(452,570)"/>
<path d="M0 0 C0 0.33 0 0.66 0 1 C-3.3 1.33 -6.6 1.66 -10 2 C-10 1.34 -10 0.68 -10 0 C-6.7169902 -1.6415049 -3.57454967 -0.51888624 0 0 Z " fill="#F78816" transform="translate(263,426)"/>
<path d="M0 0 C0.66 0 1.32 0 2 0 C2 1.98 2 3.96 2 6 C1.01 6.495 1.01 6.495 0 7 C-0.66 7.99 -1.32 8.98 -2 10 C-1.46274105 6.62294375 -0.88935377 3.303314 0 0 Z " fill="#0B131B" transform="translate(293,250)"/>
<path d="M0 0 C0.66 0.33 1.32 0.66 2 1 C2 2.32 2 3.64 2 5 C0.35 4.67 -1.3 4.34 -3 4 C-2.01 2.68 -1.02 1.36 0 0 Z " fill="#EF7F16" transform="translate(557,779)"/>
<path d="M0 0 C1.65 0 3.3 0 5 0 C4.01 1.98 3.02 3.96 2 6 C0 3 0 3 0 0 Z " fill="#EE8114" transform="translate(560,763)"/>
<path d="M0 0 C1.98 1.65 3.96 3.3 6 5 C3 7 3 7 1 7 C0.67 4.69 0.34 2.38 0 0 Z " fill="#F78615" transform="translate(361,753)"/>
<path d="M0 0 C1.98 0.66 3.96 1.32 6 2 C5.34 2.66 4.68 3.32 4 4 C4.3185177 6.10820797 4.3185177 6.10820797 5 8 C2.27573689 5.64722731 1.1858237 3.37503669 0 0 Z " fill="#EA8F24" transform="translate(450,746)"/>
<path d="M0 0 C1.65 0 3.3 0 5 0 C4.67 1.98 4.34 3.96 4 6 C1.7522025 3.94766315 0.9977758 2.99332739 0 0 Z " fill="#EF8116" transform="translate(171,634)"/>
<path d="M0 0 C0 0.66 0 1.32 0 2 C-0.66 2 -1.32 2 -2 2 C-1.34 3.32 -0.68 4.64 0 6 C-3.16115776 4.63016497 -3.9927092 4.0109362 -6 1 C-3.92446352 0.4465236 -2.15634036 0 0 0 Z " fill="#07090F" transform="translate(479,616)"/>
<path d="M0 0 C0.33 0 0.66 0 1 0 C1 1.65 1 3.3 1 5 C-0.98 5.99 -0.98 5.99 -3 7 C-3 5.02 -3 3.04 -3 1 C-2.01 1.495 -2.01 1.495 -1 2 C-0.67 1.34 -0.34 0.68 0 0 Z " fill="#FA8311" transform="translate(299,611)"/>
<path d="M0 0 C1.485 0.99 1.485 0.99 3 2 C2.67 4.31 2.34 6.62 2 9 C0.4375 7.3125 0.4375 7.3125 -1 5 C-0.6875 2.25 -0.6875 2.25 0 0 Z " fill="#0D1015" transform="translate(187,562)"/>
<path d="M0 0 C0.66 0 1.32 0 2 0 C1.6875 1.9375 1.6875 1.9375 1 4 C-2.28976808 5.09658936 -3.71303767 4.79953138 -7 4 C-7 3.67 -7 3.34 -7 3 C-5.5459375 2.814375 -5.5459375 2.814375 -4.0625 2.625 C-2.5465625 2.315625 -2.5465625 2.315625 -1 2 C-0.67 1.34 -0.34 0.68 0 0 Z " fill="#0A0C16" transform="translate(321,336)"/>
<path d="M0 0 C1.32 0.33 2.64 0.66 4 1 C1.03 3.475 1.03 3.475 -2 6 C-2 4.68 -2 3.36 -2 2 C-1.34 2 -0.68 2 0 2 C0 1.34 0 0.68 0 0 Z " fill="#24150B" transform="translate(645,231)"/>
</svg>
