<?xml version="1.0" encoding="UTF-8"?>
<!DOCTYPE svg PUBLIC "-//W3C//DTD SVG 1.1//EN" "http://www.w3.org/Graphics/SVG/1.1/DTD/svg11.dtd">
<svg xmlns="http://www.w3.org/2000/svg" version="1.1" width="2000px" height="635px" style="shape-rendering:geometricPrecision; text-rendering:geometricPrecision; image-rendering:optimizeQuality; fill-rule:evenodd; clip-rule:evenodd" xmlns:xlink="http://www.w3.org/1999/xlink">
<g><path style="opacity:0.979" fill="#7c2529" d="M 1605.5,37.5 C 1706.44,34.7311 1787.94,72.7311 1850,151.5C 1904.96,229.581 1918.96,314.581 1892,406.5C 1860.57,496.267 1800.07,557.1 1710.5,589C 1610.23,618.294 1519.56,600.294 1438.5,535C 1419.33,517.839 1402.33,498.839 1387.5,478C 1406.83,477.333 1426.17,477.333 1445.5,478C 1507.79,543.872 1583.79,568.539 1673.5,552C 1745.36,534.447 1798.86,493.28 1834,428.5C 1870.08,353.186 1868.74,278.519 1830,204.5C 1783.08,126.764 1713.91,86.0978 1622.5,82.5C 1551.86,84.4972 1492.86,111.331 1445.5,163C 1426.5,163.5 1407.5,163.667 1388.5,163.5C 1419.11,116.833 1460.11,82.3326 1511.5,60C 1541.83,47.7489 1573.17,40.2489 1605.5,37.5 Z"/></g>
<g><path style="opacity:0.979" fill="#7c2529" d="M 768.5,203.5 C 811.402,202.575 849.068,215.908 881.5,243.5C 871.161,253.839 860.494,263.839 849.5,273.5C 825.703,253.957 798.369,245.124 767.5,247C 739.04,252.457 720.207,268.957 711,296.5C 703.456,324.115 708.456,349.115 726,371.5C 741.296,386.661 759.796,394.327 781.5,394.5C 801.09,394.396 819.257,389.396 836,379.5C 836.5,367.505 836.667,355.505 836.5,343.5C 814.5,343.5 792.5,343.5 770.5,343.5C 770.5,330.167 770.5,316.833 770.5,303.5C 807.833,303.5 845.167,303.5 882.5,303.5C 882.667,336.502 882.5,369.502 882,402.5C 841.741,431.022 797.241,441.189 748.5,433C 695.292,419.072 664.792,384.905 657,330.5C 655.36,274.266 680.194,234.766 731.5,212C 743.648,207.71 755.981,204.877 768.5,203.5 Z"/></g>
<g><path style="opacity:0.981" fill="#7c2529" d="M 95.5,210.5 C 143.501,210.333 191.501,210.5 239.5,211C 262.031,212.675 279.864,222.508 293,240.5C 305.462,268.277 299.295,290.943 274.5,308.5C 304.981,323.135 316.481,347.135 309,380.5C 296.393,414.247 271.893,430.747 235.5,430C 188.835,430.5 142.168,430.667 95.5,430.5C 95.5,357.167 95.5,283.833 95.5,210.5 Z M 144.5,251.5 C 172.835,251.333 201.169,251.5 229.5,252C 244.328,255.814 250.495,265.314 248,280.5C 245.071,289.096 239.237,294.596 230.5,297C 201.87,298.45 173.203,298.95 144.5,298.5C 144.5,282.833 144.5,267.167 144.5,251.5 Z M 144.5,335.5 C 175.168,335.333 205.835,335.5 236.5,336C 256.015,341.538 263.182,354.038 258,373.5C 254.285,380.881 248.451,385.715 240.5,388C 208.541,389.463 176.541,389.963 144.5,389.5C 144.5,371.5 144.5,353.5 144.5,335.5 Z"/></g>
<g><path style="opacity:0.985" fill="#7c2529" d="M 385.5,210.5 C 399.504,210.333 413.504,210.5 427.5,211C 464.214,255.592 501.047,300.092 538,344.5C 538.5,299.835 538.667,255.168 538.5,210.5C 554.833,210.5 571.167,210.5 587.5,210.5C 587.5,283.833 587.5,357.167 587.5,430.5C 573.151,430.833 558.818,430.499 544.5,429.5C 507.811,385.312 471.311,340.979 435,296.5C 434.5,341.165 434.333,385.832 434.5,430.5C 418.167,430.5 401.833,430.5 385.5,430.5C 385.5,357.167 385.5,283.833 385.5,210.5 Z"/></g>
<g><path style="opacity:0.983" fill="#7c2529" d="M 963.5,210.5 C 1008.5,210.333 1053.5,210.5 1098.5,211C 1129.63,212.792 1151.8,227.625 1165,255.5C 1176.38,295.565 1163.22,324.399 1125.5,342C 1142.63,371.085 1159.63,400.251 1176.5,429.5C 1157.84,430.666 1139.18,430.833 1120.5,430C 1105.83,403.333 1091.17,376.667 1076.5,350C 1055.17,349.5 1033.84,349.333 1012.5,349.5C 1012.5,376.5 1012.5,403.5 1012.5,430.5C 996.167,430.5 979.833,430.5 963.5,430.5C 963.5,357.167 963.5,283.833 963.5,210.5 Z M 1012.5,251.5 C 1041.2,251.069 1069.86,251.569 1098.5,253C 1116.51,259.53 1123.01,272.03 1118,290.5C 1114.21,299.153 1107.71,304.653 1098.5,307C 1069.88,308.458 1041.21,308.958 1012.5,308.5C 1012.5,289.5 1012.5,270.5 1012.5,251.5 Z"/></g>
<g><path style="opacity:0.979" fill="#7c2529" d="M 1240.5,210.5 C 1256.83,210.5 1273.17,210.5 1289.5,210.5C 1289.03,260.862 1289.53,311.196 1291,361.5C 1295.91,377.404 1306.41,387.571 1322.5,392C 1340.31,396.734 1357.31,394.734 1373.5,386C 1381.65,380.854 1387.15,373.687 1390,364.5C 1391.48,313.213 1391.98,261.88 1391.5,210.5C 1408.17,210.5 1424.83,210.5 1441.5,210.5C 1441.67,259.501 1441.5,308.501 1441,357.5C 1436.29,397.882 1414.13,423.048 1374.5,433C 1342.27,440.406 1311.27,437.073 1281.5,423C 1257.54,409.021 1244.04,388.188 1241,360.5C 1240.5,310.501 1240.33,260.501 1240.5,210.5 Z"/></g>
<g><path style="opacity:0.983" fill="#7c2529" d="M 1523.5,210.5 C 1568.83,210.333 1614.17,210.5 1659.5,211C 1701.81,214.98 1725.15,237.98 1729.5,280C 1725.28,321.552 1702.28,344.552 1660.5,349C 1631.17,349.5 1601.84,349.667 1572.5,349.5C 1572.5,376.5 1572.5,403.5 1572.5,430.5C 1556.17,430.5 1539.83,430.5 1523.5,430.5C 1523.5,357.167 1523.5,283.833 1523.5,210.5 Z M 1572.5,251.5 C 1598.5,251.333 1624.5,251.5 1650.5,252C 1668.25,253.084 1678.25,262.418 1680.5,280C 1678.39,297.113 1668.72,306.446 1651.5,308C 1625.17,308.5 1598.84,308.667 1572.5,308.5C 1572.5,289.5 1572.5,270.5 1572.5,251.5 Z"/></g>
</svg>
