<?xml version="1.0" encoding="UTF-8"?>
<!DOCTYPE svg PUBLIC "-//W3C//DTD SVG 1.1//EN" "http://www.w3.org/Graphics/SVG/1.1/DTD/svg11.dtd">
<svg xmlns="http://www.w3.org/2000/svg" version="1.1" width="200px" height="200px" style="shape-rendering:geometricPrecision; text-rendering:geometricPrecision; image-rendering:optimizeQuality; fill-rule:evenodd; clip-rule:evenodd" xmlns:xlink="http://www.w3.org/1999/xlink">
<g><path style="opacity:1" fill="#7FFF00" d="M 36.5,26.5 C 78.5,26.5 120.5,26.5 162.5,26.5C 162.667,68.5013 162.5,110.501 162,152.5C 141.238,153.164 120.405,153.497 99.5,153.5C 78.595,153.497 57.7616,153.164 37,152.5C 36.5,110.501 36.3333,68.5013 36.5,26.5 Z M 60.5,109.5 C 65.113,109.482 69.113,110.982 72.5,114C 70.4008,116.57 68.0675,116.904 65.5,115C 59.0192,113.308 55.3526,115.808 54.5,122.5C 55.1588,127.159 57.8254,129.825 62.5,130.5C 64.9553,129.685 67.2886,128.685 69.5,127.5C 71.2077,127.703 72.541,128.536 73.5,130C 66.1058,137.482 58.9392,137.316 52,129.5C 48.0048,119.832 50.8382,113.165 60.5,109.5 Z M 103.5,109.5 C 109.496,110.62 115.496,110.787 121.5,110C 124.167,111.333 124.167,112.667 121.5,114C 117.167,114.333 112.833,114.667 108.5,115C 107.167,116.333 107.167,117.667 108.5,119C 112.821,119.499 117.154,119.666 121.5,119.5C 121.5,121.167 121.5,122.833 121.5,124.5C 117.116,124.174 112.783,124.508 108.5,125.5C 107.159,127.834 107.826,129.501 110.5,130.5C 114.223,129.896 117.889,129.73 121.5,130C 124.167,131.667 124.167,133.333 121.5,135C 115.5,135.667 109.5,135.667 103.5,135C 102.181,126.5 102.181,118 103.5,109.5 Z M 132.5,127.5 C 132.973,128.906 133.973,129.573 135.5,129.5C 139.033,130.334 142.366,129.668 145.5,127.5C 149.276,128.921 149.276,130.755 145.5,133C 135.095,137.131 128.428,133.797 125.5,123C 127.427,112.197 133.76,108.197 144.5,111C 148.204,113.136 148.204,114.969 144.5,116.5C 136.984,112.31 132.318,114.31 130.5,122.5C 130.437,124.514 131.103,126.181 132.5,127.5 Z M 93.5,110.5 C 98.7215,114.798 98.7215,119.298 93.5,124C 95.0383,127.576 96.705,131.076 98.5,134.5C 97.277,135.614 95.9437,135.781 94.5,135C 92.0039,132.344 90.0039,129.344 88.5,126C 86.5273,125.505 84.5273,125.338 82.5,125.5C 82.6641,128.187 82.4974,130.854 82,133.5C 80.951,135.107 79.451,135.773 77.5,135.5C 77.5,127.167 77.5,118.833 77.5,110.5C 82.8333,110.5 88.1667,110.5 93.5,110.5 Z"/></g>
<g><path style="opacity:0.091" fill="#7FFF00" d="M 93.5,110.5 C 88.1667,110.5 82.8333,110.5 77.5,110.5C 77.5,118.833 77.5,127.167 77.5,135.5C 76.507,127.016 76.1736,118.349 76.5,109.5C 82.358,109.178 88.0247,109.511 93.5,110.5 Z"/></g>
<g><path style="opacity:0.471" fill="#7FFF00" d="M 132.5,127.5 C 134.027,127.427 135.027,128.094 135.5,129.5C 133.973,129.573 132.973,128.906 132.5,127.5 Z"/></g>
<g><path style="opacity:0.961" fill="#7FFF00" d="M 54.5,160.5 C 63.0875,160.398 65.4209,164.064 61.5,171.5C 54.1717,174.437 50.6717,172.104 51,164.5C 51.6897,162.65 52.8564,161.316 54.5,160.5 Z M 55.5,163.5 C 60.4928,163.997 61.4928,166.164 58.5,170C 57.2161,170.684 56.0495,170.517 55,169.5C 54.3224,167.402 54.4891,165.402 55.5,163.5 Z"/></g>
<g><path style="opacity:0.977" fill="#7FFF00" d="M 97.5,163.5 C 96.1667,163.5 95.5,164.167 95.5,165.5C 93.1667,162.833 90.8333,162.833 88.5,165.5C 88.6716,164.508 88.3382,163.842 87.5,163.5C 87.8743,161.05 89.3743,160.05 92,160.5C 94.6546,160.124 96.488,161.124 97.5,163.5 Z"/></g>
<g><path style="opacity:0.98" fill="#7FFF00" d="M 154.5,160.5 C 157.482,160.104 160.149,160.771 162.5,162.5C 162.167,163.5 161.5,164.167 160.5,164.5C 154.448,162.864 153.115,164.697 156.5,170C 158.074,170.699 159.407,170.365 160.5,169C 157.957,166.649 158.623,165.483 162.5,165.5C 162.5,167.833 162.5,170.167 162.5,172.5C 151.231,173.921 148.564,169.921 154.5,160.5 Z"/></g>
<g><path style="opacity:0.97" fill="#7FFF00" d="M 67.5,160.5 C 68.4959,160.414 69.3292,160.748 70,161.5C 70.3333,163.167 70.6667,164.833 71,166.5C 73.393,158.534 75.7263,158.534 78,166.5C 78.3333,164.833 78.6667,163.167 79,161.5C 80.1827,160.269 81.3493,160.269 82.5,161.5C 81.752,164.905 80.752,168.238 79.5,171.5C 77.1817,172.834 75.515,172.168 74.5,169.5C 73.6143,170.325 73.281,171.325 73.5,172.5C 72.1667,172.5 70.8333,172.5 69.5,172.5C 68.2073,168.616 67.5407,164.616 67.5,160.5 Z"/></g>
<g><path style="opacity:0.954" fill="#7FFF00" d="M 102.5,160.5 C 109.284,159.185 111.617,161.685 109.5,168C 110.167,169.333 110.833,170.667 111.5,172C 110.056,172.781 108.723,172.614 107.5,171.5C 105.393,167.405 104.06,167.738 103.5,172.5C 102.509,168.555 102.176,164.555 102.5,160.5 Z M 104.5,163.5 C 105.675,163.281 106.675,163.614 107.5,164.5C 105.948,165.798 104.948,165.465 104.5,163.5 Z"/></g>
<g><path style="opacity:0.22" fill="#7FFF00" d="M 115.5,161.5 C 116.209,160.596 117.209,160.263 118.5,160.5C 118.5,162.167 118.5,163.833 118.5,165.5C 117.978,163.781 116.978,162.448 115.5,161.5 Z"/></g>
<g><path style="opacity:1" fill="#7FFF00" d="M 122.5,168.5 C 121.833,166.833 121.167,165.167 120.5,163.5C 120.834,160.725 122.167,160.059 124.5,161.5C 123.054,163.618 122.387,165.951 122.5,168.5 Z"/></g>
<g><path style="opacity:0.733" fill="#7FFF00" d="M 128.5,160.5 C 129.5,160.5 130.5,160.5 131.5,160.5C 131.5,164.5 131.5,168.5 131.5,172.5C 130.5,172.5 129.5,172.5 128.5,172.5C 128.5,168.5 128.5,164.5 128.5,160.5 Z"/></g>
<g><path style="opacity:0.985" fill="#7FFF00" d="M 39.5,160.5 C 42.4822,160.104 45.1489,160.771 47.5,162.5C 47.1667,163.5 46.5,164.167 45.5,164.5C 42.5189,162.737 40.5189,163.403 39.5,166.5C 40.6614,170.722 42.828,171.388 46,168.5C 47.6169,169.536 47.7836,170.703 46.5,172C 43.5706,172.777 40.7372,172.61 38,171.5C 35.697,167.332 36.197,163.665 39.5,160.5 Z"/></g>
<g><path style="opacity:0.934" fill="#7FFF00" d="M 87.5,163.5 C 88.3382,163.842 88.6716,164.508 88.5,165.5C 89.0627,170.512 91.2293,171.512 95,168.5C 95.4828,167.552 95.6495,166.552 95.5,165.5C 95.5,164.167 96.1667,163.5 97.5,163.5C 99.1434,170.687 96.1434,173.52 88.5,172C 85.0577,169.344 84.7244,166.51 87.5,163.5 Z M 95.5,165.5 C 95.6495,166.552 95.4828,167.552 95,168.5C 91.2293,171.512 89.0627,170.512 88.5,165.5C 90.8333,162.833 93.1667,162.833 95.5,165.5 Z"/></g>
<g><path style="opacity:0.986" fill="#7FFF00" d="M 141.5,168.5 C 141.013,167.527 140.513,166.527 140,165.5C 139.503,167.81 139.337,170.143 139.5,172.5C 138.5,172.5 137.5,172.5 136.5,172.5C 136.335,168.818 136.501,165.152 137,161.5C 138.183,160.269 139.349,160.269 140.5,161.5C 143.843,169.811 145.176,169.478 144.5,160.5C 145.5,160.5 146.5,160.5 147.5,160.5C 147.5,164.5 147.5,168.5 147.5,172.5C 144.144,173.138 142.144,171.804 141.5,168.5 Z"/></g>
<g><path style="opacity:0.031" fill="#7FFF00" d="M 141.5,168.5 C 140.833,169.833 140.167,171.167 139.5,172.5C 139.337,170.143 139.503,167.81 140,165.5C 140.513,166.527 141.013,167.527 141.5,168.5 Z"/></g>
<g><path style="opacity:0.957" fill="#7FFF00" d="M 115.5,161.5 C 116.978,162.448 117.978,163.781 118.5,165.5C 119.167,164.833 119.833,164.167 120.5,163.5C 121.167,165.167 121.833,166.833 122.5,168.5C 125.383,170.982 125.05,172.149 121.5,172C 120.107,170.829 119.273,169.329 119,167.5C 118.506,169.134 118.34,170.801 118.5,172.5C 117.5,172.5 116.5,172.5 115.5,172.5C 115.5,168.833 115.5,165.167 115.5,161.5 Z"/></g>
</svg>
